<svg width="80" height="87" viewBox="0 0 80 87" fill="none" xmlns="http://www.w3.org/2000/svg">
<path d="M9.88224 69.2039L8.80457 67.3487C20.9602 65.6707 30.3191 67.3043 33.4791 68.3309L28.3138 70.8409C17.344 68.4546 11.4554 68.7553 9.88224 69.2039Z" fill="url(#paint0_linear_378_218)"/>
<path d="M20.4526 75.9644C18.7144 74.6109 14.1978 72.9996 12.1567 72.3632C12.453 72.8272 14.1402 74.6834 14.9467 75.5535L17.7861 78.2846L20.4526 75.9644Z" fill="url(#paint1_linear_378_218)"/>
<path d="M9.78247 69.1131L10.9075 70.8328L13.8359 70.9615L16.7493 71.3965L21.7368 72.5083L24.0824 73.4751L28.3785 70.9615L27.1686 70.6231L23.8355 69.9222L19.7122 69.3905L16.1074 69.1131L12.0582 68.9554L9.78247 69.1131Z" fill="url(#paint2_linear_378_218)"/>
<path d="M38.6445 66.1877C24.2934 62.7358 12.2317 64.4149 7.99475 65.686L8.66109 67.2915C23.0941 65.9268 31.2469 67.4253 33.5191 68.3451L38.6445 66.1877Z" fill="url(#paint3_linear_378_218)"/>
<path d="M27.4075 83.7091L24.8248 82.5503L28.4429 79.0376L32.6262 75.3521L38.7443 71.4106L45.856 67.981L51.6081 65.8823L56.3449 64.6911L61.1147 63.8268L65.8845 63.4645H69.7413L74.7293 63.8268L74.3107 64.9947C56.0148 63.8786 39.7889 78.1924 33.3264 85.4579L31.5615 85.0365L27.4075 83.7091Z" fill="url(#paint4_linear_378_218)"/>
<path d="M74.768 63.9518C49.3998 61.033 30.9496 75.2008 24.8956 82.6495C21.8378 81.3829 19.3957 79.229 17.9564 78.1912C39.1655 60.502 62.9939 60.3395 75.2308 62.7884L74.768 63.9518Z" fill="url(#paint5_linear_378_218)"/>
<path d="M56.483 39.1949L55.5304 36.2009L56.483 34.2787L57.6568 35.2313L58.3882 37.3236L58.7455 39.9433L56.483 39.1949Z" fill="url(#paint6_linear_378_218)"/>
<path d="M43.9958 86.047C39.8644 86.5395 35.3003 85.8417 33.5347 85.4313C48.4798 67.7517 66.8555 64.4113 74.1751 64.9511L73.9188 65.7213C61.1511 66.7015 48.6503 79.6802 43.9958 86.047Z" fill="url(#paint7_linear_378_218)"/>
<path d="M55.5293 83.1205C57.8615 78.7713 64.7505 69.5171 73.0401 67.2977C71.0031 71.199 64.5275 79.8261 55.5293 83.1205Z" fill="url(#paint8_linear_378_218)"/>
<path d="M12.2406 72.4502L10.8481 70.7084C18.213 71.2234 22.7618 72.69 24.1156 73.3589L20.5956 75.8959C16.2634 73.5634 13.2205 72.6269 12.2406 72.4502Z" fill="url(#paint9_linear_378_218)"/>
<path d="M73.795 65.8017C61.9831 66.1044 48.9914 79.4292 43.972 86.0537C46.8991 86.218 52.9358 84.296 55.5882 83.3144L55.8681 82.5382L57.3139 80.0727L60.3922 76.2604L62.1879 74.2058L65.2662 71.4664L68.9975 69.0238L72.4723 67.3573L73.0786 67.1975L73.795 65.8017Z" fill="url(#paint10_linear_378_218)"/>
<path d="M11.1627 31.8898L10.3652 31.2668L13.3087 27.4011L14.782 28.4056L15.9572 29.4471L17.6663 30.2527L19.9306 31.0691L21.8792 31.8203L23.3488 32.136L25.7655 32.2557L24.2306 32.898V33.1592L26.288 34.3023L28.0079 35.3396L28.8804 35.5396L30.2801 35.2669L31.1062 34.7489L31.9796 33.6492L32.834 33.4492V33.7673L32.3341 34.6671L31.1062 35.8304L30.2801 36.1758L29.8983 36.5121L30.0619 36.7029L31.3525 37.2301L33.2055 37.653L35.0798 37.8806L36.6394 38.4772H37.8487L39.2914 38.1282L40.3385 37.4476L42.2328 36.9938L43.724 36.8074L45.3425 36.621L49.16 34.6288L49.4717 35.3797L46.1785 37.0658L46.0863 37.316L47.8778 38.9231L49.3942 38.7519L50.2093 38.3699L50.3163 37.4741L50.8416 36.4993L51.6583 35.8671L52.6199 35.5773L53.7396 35.6563L54.4905 35.9461L55.4257 36.9077L56.0053 38.2645L55.8868 39.7455L54.8988 41.1098L53.2522 41.6103L51.9481 41.2969L51.0656 40.4248L50.5518 39.4674H50.3163L49.3942 39.7455L49.0136 39.9669L48.9112 40.3017L49.16 40.8579L49.3942 41.2969H49.16L48.3257 40.6646L47.6406 39.9669L46.4447 38.8338L45.3425 38.0345L44.0059 37.8235L41.4498 38.2456L37.5396 38.8338L34.8117 39.0118L33.0243 39.068L32.9313 39.1741L33.595 40.218L34.8117 42.0857L35.328 43.5067H35.7848L36.7795 42.9383C37.4778 41.1031 38.62 40.3601 39.1039 40.218L39.2054 40.6646L38.9516 42.0857L38.1176 43.638L38.7171 44.0654L39.9397 45.0684L40.4501 45.8221L39.7913 45.8636L38.5907 45.5374L37.8553 45.0331L37.197 44.4939L36.5527 44.3468L35.8441 44.6126L35.6413 44.9444V45.8293L36.01 46.4377L36.7843 47.3779L36.9871 48.0232L36.6184 47.931L35.1067 47.3779L34.9961 47.0092L34.8117 45.35L34.0375 43.064L33.0788 41.1652L32.157 39.9669L31.1062 38.8423L29.5393 37.5531L27.5716 36.2847L25.4574 35.2113L22.2471 33.9953L20.2412 33.3023L18.5405 32.9275L16.8827 32.8642L14.782 32.7883L13.6177 32.6491L12.8585 32.4087L11.1627 31.8898Z" fill="url(#paint11_linear_378_218)"/>
<path d="M40.6621 39.9689H39.6947L39.6348 40.9449L39.532 41.9295L39.0269 43.3507L40.1142 44.4208L40.9104 45.6366H41.1758L41.895 45.277L42.9052 44.4808L43.3761 43.5647L43.4788 42.5373L43.1192 41.7668L42.6227 41.3388L41.9891 41.1761H41.347H40.6621L40.3197 40.9963L40.5851 40.7395L41.8265 40.2001L40.6621 39.9689Z" fill="url(#paint12_linear_378_218)"/>
<path d="M35.7742 32.7348L33.6699 33.0933V33.5921V34.6988L34.1998 35.9302L35.3689 37.0213L36.6782 37.7072H37.6446L38.8293 37.5201L39.8425 36.8655L40.6998 35.7588L40.8556 35.3223V34.7767L39.406 33.5921L38.0343 32.9998L35.7742 32.7348Z" fill="url(#paint13_linear_378_218)"/>
<path d="M34.5696 30.1924L34.2955 31.9953L34.46 32.1353L36.1533 31.9953L36.3786 31.8369L36.1167 31.0573L35.5442 30.4116L34.5696 30.1924Z" fill="url(#paint14_linear_378_218)"/>
<path d="M32.5125 26.8552L31.4348 25.6628L30.4945 25.9609L29.4168 26.7176L28.6371 28.1165V29.7446L29.3021 31.304L30.4945 32.2671L31.7099 32.7487H33.361L33.5445 31.8543L33.7509 30.0657L33.361 28.4834L32.5125 26.8552Z" fill="url(#paint15_linear_378_218)"/>
<path d="M54.7325 35.2256C53.0288 34.1524 51.3173 35.0579 50.6745 35.6448L49.8863 34.538L49.8025 33.5487L49.8863 32.8108L50.3223 31.9389L51.0434 31.1339L51.8651 30.6141L52.8041 30.5135L53.7096 30.7147L54.5984 31.3687L55.1853 32.3581L55.3027 33.7164L54.7325 35.2256Z" fill="url(#paint16_linear_378_218)"/>
<path d="M56.6274 40.0215C55.9164 41.9398 53.7935 42.453 52.8209 42.4697L53.1898 43.7609L54.2966 44.8341L55.6381 45.3204L56.9963 45.1024L57.9186 44.5155L58.3546 43.5597L58.4888 42.4697L58.1869 41.4636L57.4659 40.5413L56.6274 40.0215Z" fill="url(#paint17_linear_378_218)"/>
<path d="M55.9736 34.5381L55.437 35.5946L55.7053 36.0809L55.9736 35.5946L56.2419 35.0747L56.3928 34.84L57.0971 35.0747V35.5946L56.2419 36.4498V36.7181L56.3928 36.9696L57.5163 36.4498H57.8517L58.1368 36.9696L57.9691 37.3553L56.7282 37.5565L56.527 37.6907L56.6444 38.1099L56.9127 38.2273H57.684L58.3715 38.4453V38.8477L58.2374 39.3005H57.684L57.0971 38.9483H56.7282V39.3005L57.684 39.7868L58.3715 40.5078L59.0423 41.4804L59.713 40.5078L59.9143 39.5352V38.5794L59.5454 37.6907L58.556 36.5504L58.6734 35.8126V35.0747L58.3715 34.2698L57.9691 33.5823L57.248 33.0289L56.527 32.8445H56.0575L55.9736 34.5381Z" fill="url(#paint18_linear_378_218)"/>
<path d="M39.3712 33.2147L33.0563 26.8052L32.3301 24.6897L34.0036 23.932L38.8344 24.2477L42.055 27.4998L42.939 32.8674L39.3712 33.2147Z" fill="url(#paint19_linear_378_218)"/>
<path d="M33.213 26.695L33.919 27.3607L34.0044 25.908L33.7222 25.166L33.8351 24.6494L34.456 24.4152L34.8462 24.9199L34.724 25.908L34.8462 27.9682L35.3286 26.247V25.0444L35.5174 24.4921L36.2117 24.4152L36.5741 24.7997L36.2117 25.6739L35.6396 27.9682V28.5004L36.5741 26.7108L37.0611 25.4366L37.1574 24.7456L37.6218 24.6494L38.1201 24.8362L38.2617 25.3403L36.8346 27.6622L36.5457 28.4494L37.7716 26.9228L38.4096 25.908L38.9383 25.3065L39.4973 25.4766L39.7404 26.0961L39.1714 26.5919L37.6658 28.3231L37.4483 28.827L39.2771 27.4697L39.9517 26.535L40.5532 26.5919L40.9027 27.047L40.797 27.4697L40.0899 27.7866L37.6658 29.6915L40.1786 28.6127L40.6522 28.0733L41.4021 27.9417L41.6915 28.6785L41.481 29.0995L40.7311 29.1784L37.7447 30.6519L39.6392 30.244L40.7311 29.8888L41.481 29.6915L41.9415 29.9809L41.8494 30.6519L41.4021 30.8624H40.1786L38.7972 31.1518L38.3236 31.4412H40.2838L41.481 31.2702L41.8494 31.6517L41.6915 32.3622L41.2048 32.4674L40.2838 32.178H39.5208H38.9682L39.0472 32.4674L40.4812 33.3883L41.6126 34.3882L43.2308 35.5986L44.5201 35.7038L45.9936 35.2828L47.3355 34.1777L48.0065 32.9279L48.1906 31.2702L47.9012 29.9809L47.5197 29.1784L46.454 27.8233L46.1383 27.2839L46.3225 26.9155L46.7435 25.9157L46.9013 24.5343L46.7435 23.4292L45.9541 21.9425L44.9394 20.7894L43.8037 20.0467L42.1354 19.5206H40.7301L38.7803 20.3107L38.3466 19.8266L37.1968 19.05L35.8252 18.4549L34.4132 18.2835L33.1121 18.5457L31.5992 19.3223L30.5806 20.8453L30.2881 22.3581L30.6915 23.5079L31.8716 24.9199L33.213 26.695Z" fill="url(#paint20_linear_378_218)"/>
<path d="M50.43 37.1489L50.247 38.3122L50.6522 39.6193L51.2926 40.7433L52.2206 41.4491L53.4231 41.5929L54.6256 41.253L55.5666 40.3381L55.9326 39.2141V38.1946L55.5666 37.1489L54.8478 36.3125L54.2073 35.8419L53.4231 35.672H52.3513L51.3841 36.0772L50.43 37.1489Z" fill="url(#paint21_linear_378_218)"/>
<path d="M54.4784 29.496L54.2518 27.8534V27.6079L55.6112 29.9869L57.7127 28.2527L57.5576 27.1781L57.2142 25.9373L56.1617 25.4906L55.1758 24.4048L54.6218 23.3449L54.4778 21.7558L54.7548 20.6639L55.2755 20.1764V20.7451L55.4416 20.8633L56.4055 19.9216L57.2917 19.5117H58.2002L59.1308 20.3315L59.6293 22.3811L59.1308 24.2755L58.1224 25.5931L58.6223 27.0218H58.8128L61.371 24.4048L61.637 21.7558L61.4849 20.7451L61.637 20.5307L62.5152 22.7572L62.8471 22.8609L66.5053 18.2148L62.1917 25.0419L62.7211 25.4906L63.1519 25.347L65.2068 24.4048V24.5573L64.13 26.0021L63.9057 26.324L64.6176 27.375V27.6079L62.8239 26.6261L61.7854 26.324H61.0679L59.7462 27.6079L59.3309 28.3443L59.8784 29.496L59.1232 29.6471H58.1224L57.2728 29.9869L55.6112 31.3086L54.6294 30.2135L54.4784 29.496Z" fill="url(#paint22_linear_378_218)"/>
<path d="M59.2753 23.938L58.1128 25.5953L57.1852 25.9787L56.6534 25.719L55.5774 24.9893L54.959 24.0617L54.4272 22.726L54.5385 21.5387L54.8353 20.5369L55.2064 20.2895L55.3919 20.9327L55.6887 20.6853L56.2329 20.0174L56.9378 19.5846L57.9767 19.4362L58.9414 20.0174L59.4114 21.3532L59.5845 22.726L59.2753 23.938Z" fill="url(#paint23_linear_378_218)"/>
<path d="M65.3588 27.9026L64.7012 26.3837L65.1921 25.6243L65.7385 24.4111H66.3312L66.8035 24.6519L66.183 24.9575V25.1428L67.4981 25.7725L67.637 26.1985L67.3128 27.3747L66.0904 27.9952L65.3588 27.9026Z" fill="url(#paint24_linear_378_218)"/>
<path d="M3.16708 54.0626C3.33739 54.0966 3.50089 54.1171 3.65757 54.1239C3.81426 54.1239 3.95391 54.1171 4.07653 54.1034C4.20597 54.083 4.332 54.0558 4.45462 54.0217C4.57724 53.9876 4.67943 53.9502 4.76118 53.9093C4.84974 53.8684 4.93489 53.8241 5.01664 53.7765C5.09839 53.722 5.16311 53.6743 5.21079 53.6334C5.26529 53.5925 5.31639 53.5482 5.36407 53.5006C5.41176 53.4529 5.44241 53.4222 5.45604 53.4086C5.47648 53.3881 5.49351 53.3677 5.50713 53.3473L5.74216 53.3575C5.61954 53.4869 5.51054 53.5993 5.41516 53.6947C5.31979 53.7833 5.15629 53.8923 4.92467 54.0217C4.69987 54.1511 4.46824 54.2363 4.22981 54.2772C3.68482 54.3589 3.15346 54.2772 2.63572 54.0319C2.12479 53.7867 1.6922 53.412 1.33796 52.9079C0.983714 52.3969 0.7555 51.8179 0.653314 51.1707C0.551128 50.5235 0.592003 49.907 0.775937 49.3212C0.959871 48.7285 1.25621 48.238 1.66495 47.8497C2.08051 47.4546 2.56078 47.2161 3.10577 47.1344C3.88919 47.0118 4.61812 47.2161 5.29254 47.7475C5.34023 47.7884 5.38451 47.8258 5.42538 47.8599L5.80347 48.1052L5.47648 49.0555C5.52416 48.9124 5.53098 48.7421 5.49691 48.5445C5.46285 48.347 5.40495 48.2005 5.3232 48.1052C5.31639 48.0983 5.29935 48.0847 5.27211 48.0643C5.25167 48.037 5.22442 48.0098 5.19036 47.9825C5.16311 47.9553 5.14608 47.9348 5.13926 47.9212C4.85314 47.6419 4.52615 47.475 4.15828 47.4205C3.58604 47.3319 3.04446 47.5227 2.53353 47.9927C2.02941 48.4628 1.67517 49.0929 1.4708 49.8832C1.45036 49.9649 1.43333 50.0467 1.41971 50.1284C1.40608 50.2034 1.39246 50.2817 1.37883 50.3635C1.29027 50.9561 1.31071 51.525 1.44014 52.07C1.56958 52.6081 1.78757 53.0543 2.09413 53.4086C2.40069 53.7628 2.75834 53.9808 3.16708 54.0626Z" fill="#665F5F"/>
<path d="M11.0911 53.848C11.0979 53.957 11.1081 54.0455 11.1218 54.1137C11.1422 54.1818 11.1728 54.2295 11.2137 54.2567C11.2546 54.2772 11.2887 54.2908 11.3159 54.2976C11.35 54.3044 11.3977 54.3078 11.459 54.3078H9.99771C10.059 54.3078 10.1033 54.3044 10.1306 54.2976C10.1646 54.2908 10.2021 54.2738 10.243 54.2465C10.2838 54.2193 10.3145 54.1716 10.3349 54.1034C10.3554 54.0353 10.3656 53.9468 10.3656 53.8378V50.3941H7.44307V53.848C7.44307 53.9297 7.44988 54.0013 7.46351 54.0626C7.47713 54.1239 7.49076 54.1716 7.50438 54.2056C7.52482 54.2329 7.55207 54.2567 7.58613 54.2772C7.62019 54.2908 7.65085 54.301 7.6781 54.3078C7.70535 54.3078 7.73941 54.3078 7.78028 54.3078H6.33947C6.40078 54.3078 6.44506 54.3044 6.47231 54.2976C6.50637 54.2908 6.54384 54.2738 6.58471 54.2465C6.62559 54.2193 6.65624 54.1716 6.67668 54.1034C6.69712 54.0353 6.70733 53.9468 6.70733 53.8378V47.6249C6.70733 47.5091 6.69712 47.4171 6.67668 47.349C6.65624 47.2809 6.62559 47.2332 6.58471 47.2059C6.54384 47.1787 6.50637 47.165 6.47231 47.165C6.44506 47.1582 6.40078 47.1548 6.33947 47.1548H6.70733H7.44307H7.80072C7.75303 47.1548 7.71557 47.1548 7.68832 47.1548C7.66788 47.1548 7.63722 47.165 7.59635 47.1855C7.56229 47.1991 7.53504 47.2229 7.5146 47.257C7.49416 47.2843 7.47713 47.3285 7.46351 47.3899C7.44988 47.4512 7.44307 47.5261 7.44307 47.6147V50.1489H10.3656V47.6249C10.3656 47.5091 10.3554 47.4171 10.3349 47.349C10.3145 47.2809 10.2838 47.2332 10.243 47.2059C10.2021 47.1787 10.1646 47.165 10.1306 47.165C10.1033 47.1582 10.059 47.1548 9.99771 47.1548H10.3656H11.0911H11.459C11.3977 47.1548 11.35 47.1582 11.3159 47.165C11.2887 47.165 11.2546 47.1787 11.2137 47.2059C11.1728 47.2332 11.1422 47.2809 11.1218 47.349C11.1081 47.4171 11.0979 47.5057 11.0911 47.6147V53.848Z" fill="#665F5F"/>
<path d="M15.7758 54.0626C15.8985 54.0626 16.0381 53.9808 16.1948 53.8173C16.3583 53.6538 16.4605 53.4903 16.5014 53.3268L16.2561 54.3078H12.1074C12.1687 54.3078 12.213 54.3044 12.2402 54.2976C12.2743 54.2908 12.3117 54.2738 12.3526 54.2465C12.3935 54.2193 12.4241 54.1716 12.4446 54.1034C12.465 54.0353 12.4752 53.9468 12.4752 53.8378V47.6249C12.4752 47.5091 12.465 47.4171 12.4446 47.349C12.4241 47.2809 12.3935 47.2332 12.3526 47.2059C12.3117 47.1787 12.2743 47.165 12.2402 47.165C12.213 47.1582 12.1687 47.1548 12.1074 47.1548H13.5686C13.5686 47.1548 13.5618 47.1548 13.5482 47.1548C13.5414 47.1548 13.538 47.1548 13.538 47.1548H16.0211L16.2561 48.1256C16.2289 48.0234 16.1709 47.9144 16.0824 47.7986C16.0006 47.6828 15.9053 47.5874 15.7963 47.5125C15.6941 47.4375 15.6055 47.4001 15.5306 47.4001H13.2212C13.2144 47.4546 13.211 47.5261 13.211 47.6147V50.1489H15.1832C15.299 50.1489 15.3875 50.1421 15.4488 50.1284C15.517 50.108 15.5646 50.0773 15.5919 50.0365C15.6191 49.9888 15.6362 49.9513 15.643 49.9241C15.6498 49.89 15.6532 49.8423 15.6532 49.781V50.762C15.6532 50.7007 15.6498 50.6564 15.643 50.6291C15.6362 50.5951 15.6191 50.5576 15.5919 50.5167C15.5646 50.469 15.517 50.4384 15.4488 50.4248C15.3807 50.4043 15.2922 50.3941 15.1832 50.3941H13.211V53.848C13.211 53.9365 13.2144 54.0081 13.2212 54.0626H15.7758Z" fill="#665F5F"/>
<path d="M21.8597 54.0932C21.8665 54.0932 21.8767 54.1069 21.8904 54.1341C21.9108 54.1545 21.9244 54.1682 21.9312 54.175C21.9381 54.1818 21.9483 54.1954 21.9619 54.2159C21.9823 54.2363 21.9994 54.2499 22.013 54.2567C22.0266 54.2635 22.0436 54.2738 22.0641 54.2874C22.0913 54.2942 22.1152 54.301 22.1356 54.3078C22.1629 54.3078 22.1935 54.3078 22.2276 54.3078H21.124H21.1138H20.7561C20.8583 54.3078 20.9298 54.2942 20.9707 54.2669C21.032 54.2329 21.0422 54.1886 21.0013 54.1341L18.4467 50.3941H18.1912V53.8378C18.1912 53.9536 18.2015 54.0455 18.2219 54.1137C18.2423 54.1818 18.273 54.2295 18.3139 54.2567C18.3547 54.2772 18.3888 54.2908 18.4161 54.2976C18.4501 54.3044 18.4978 54.3078 18.5591 54.3078H17.0979C17.1592 54.3078 17.2035 54.3044 17.2307 54.2976C17.2648 54.2908 17.3022 54.2772 17.3431 54.2567C17.384 54.2295 17.4146 54.1818 17.4351 54.1137C17.4555 54.0455 17.4657 53.9536 17.4657 53.8378V47.6249C17.4657 47.5091 17.4555 47.4171 17.4351 47.349C17.4146 47.2809 17.384 47.2332 17.3431 47.2059C17.3022 47.1787 17.2648 47.165 17.2307 47.165C17.2035 47.1582 17.1592 47.1548 17.0979 47.1548H18.1912H18.2015H18.5591C18.5251 47.1548 18.4978 47.1548 18.4774 47.1548H18.9372C19.4004 47.1548 19.8194 47.1991 20.1941 47.2877C20.3235 47.3149 20.453 47.3524 20.5824 47.4001C20.9162 47.5159 21.1887 47.6692 21.3999 47.8599C21.6179 48.0438 21.7575 48.2448 21.8188 48.4628C21.8801 48.674 21.8801 48.8852 21.8188 49.0964C21.7575 49.3075 21.6179 49.5085 21.3999 49.6992C21.1887 49.8832 20.9162 50.0331 20.5824 50.1489C20.453 50.1966 20.3201 50.234 20.1839 50.2613C20.1771 50.2681 20.1702 50.2715 20.1634 50.2715C19.9046 50.3328 19.6252 50.3703 19.3255 50.3839L21.8597 54.0932ZM18.9372 50.1489C19.0189 50.1489 19.0939 50.1489 19.162 50.1489C19.7887 50.1148 20.2724 49.9649 20.613 49.6992C20.9605 49.4336 21.1342 49.127 21.1342 48.7796C21.1342 48.6365 21.1069 48.5003 21.0524 48.3708C20.9979 48.2346 20.9094 48.1086 20.7868 47.9927C20.6641 47.8769 20.5177 47.7748 20.3474 47.6862C20.1771 47.5976 19.9693 47.5295 19.724 47.4818C19.4856 47.4273 19.2233 47.4001 18.9372 47.4001H18.2117C18.1981 47.4614 18.1912 47.5363 18.1912 47.6249V50.1489H18.9372Z" fill="#665F5F"/>
<path d="M27.4779 54.0932C27.4847 54.0932 27.495 54.1069 27.5086 54.1341C27.529 54.1545 27.5426 54.1682 27.5495 54.175C27.5563 54.1818 27.5665 54.1954 27.5801 54.2159C27.6005 54.2363 27.6176 54.2499 27.6312 54.2567C27.6448 54.2635 27.6619 54.2738 27.6823 54.2874C27.7095 54.2942 27.7334 54.301 27.7538 54.3078C27.7811 54.3078 27.8117 54.3078 27.8458 54.3078H26.7422H26.732H26.3743C26.4765 54.3078 26.548 54.2942 26.5889 54.2669C26.6502 54.2329 26.6604 54.1886 26.6196 54.1341L24.0649 50.3941H23.8095V53.8378C23.8095 53.9536 23.8197 54.0455 23.8401 54.1137C23.8606 54.1818 23.8912 54.2295 23.9321 54.2567C23.973 54.2772 24.007 54.2908 24.0343 54.2976C24.0683 54.3044 24.116 54.3078 24.1773 54.3078H22.7161C22.7774 54.3078 22.8217 54.3044 22.8489 54.2976C22.883 54.2908 22.9204 54.2772 22.9613 54.2567C23.0022 54.2295 23.0328 54.1818 23.0533 54.1137C23.0737 54.0455 23.0839 53.9536 23.0839 53.8378V47.6249C23.0839 47.5091 23.0737 47.4171 23.0533 47.349C23.0328 47.2809 23.0022 47.2332 22.9613 47.2059C22.9204 47.1787 22.883 47.165 22.8489 47.165C22.8217 47.1582 22.7774 47.1548 22.7161 47.1548H23.8095H23.8197H24.1773C24.1433 47.1548 24.116 47.1548 24.0956 47.1548H24.5554C25.0187 47.1548 25.4376 47.1991 25.8123 47.2877C25.9417 47.3149 26.0712 47.3524 26.2006 47.4001C26.5344 47.5159 26.8069 47.6692 27.0181 47.8599C27.2361 48.0438 27.3757 48.2448 27.4371 48.4628C27.4984 48.674 27.4984 48.8852 27.4371 49.0964C27.3757 49.3075 27.2361 49.5085 27.0181 49.6992C26.8069 49.8832 26.5344 50.0331 26.2006 50.1489C26.0712 50.1966 25.9383 50.234 25.8021 50.2613C25.7953 50.2681 25.7885 50.2715 25.7816 50.2715C25.5228 50.3328 25.2435 50.3703 24.9437 50.3839L27.4779 54.0932ZM24.5554 50.1489C24.6372 50.1489 24.7121 50.1489 24.7802 50.1489C25.407 50.1148 25.8906 49.9649 26.2313 49.6992C26.5787 49.4336 26.7524 49.127 26.7524 48.7796C26.7524 48.6365 26.7252 48.5003 26.6707 48.3708C26.6162 48.2346 26.5276 48.1086 26.405 47.9927C26.2824 47.8769 26.1359 47.7748 25.9656 47.6862C25.7953 47.5976 25.5875 47.5295 25.3422 47.4818C25.1038 47.4273 24.8415 47.4001 24.5554 47.4001H23.8299C23.8163 47.4614 23.8095 47.5363 23.8095 47.6249V50.1489H24.5554Z" fill="#665F5F"/>
<path d="M31.3234 47.1242H32.2022C32.1068 47.1242 32.0387 47.1344 31.9978 47.1548C31.991 47.1548 31.9842 47.1582 31.9774 47.165C31.9774 47.165 31.9706 47.1684 31.9569 47.1753C31.9569 47.1821 31.9535 47.1855 31.9467 47.1855C31.9399 47.1923 31.9331 47.2025 31.9263 47.2161C31.9195 47.2161 31.9161 47.2195 31.9161 47.2264C31.9092 47.24 31.9024 47.2536 31.8956 47.2672C31.8888 47.274 31.8854 47.2774 31.8854 47.2774L30.3731 50.3328V53.848C30.3731 53.957 30.3799 54.0455 30.3935 54.1137C30.4139 54.1818 30.4446 54.2295 30.4855 54.2567C30.5263 54.2772 30.5604 54.2908 30.5876 54.2976C30.6217 54.3044 30.6694 54.3078 30.7307 54.3078H30.3731H29.6782H29.2694C29.3308 54.3078 29.375 54.3044 29.4023 54.2976C29.4363 54.2908 29.4738 54.2772 29.5147 54.2567C29.5556 54.2295 29.5862 54.1818 29.6067 54.1137C29.6271 54.0455 29.6373 53.9536 29.6373 53.8378V53.848V50.3839L28.125 47.584L28.033 47.3899C27.8763 47.2195 27.6822 47.131 27.4505 47.1242H29.0753C28.9322 47.1242 28.8369 47.1548 28.7892 47.2161C28.7755 47.2366 28.7721 47.2604 28.779 47.2877V47.2979L29.6373 48.8818L30.2606 50.0467L30.3731 49.8219L31.6299 47.257C31.5891 47.1684 31.4869 47.1242 31.3234 47.1242Z" fill="#665F5F"/>
<path d="M42.888 50.3941C43.2559 50.5167 43.5692 50.6768 43.8281 50.8744C44.087 51.0719 44.2743 51.2865 44.3901 51.5182C44.5127 51.743 44.5741 51.9814 44.5741 52.2335C44.5741 52.4855 44.5127 52.7273 44.3901 52.959C44.2675 53.1838 44.0733 53.395 43.8077 53.5925C43.542 53.7901 43.2252 53.9502 42.8573 54.0728C42.7143 54.1137 42.5678 54.1511 42.4179 54.1852C42.0364 54.2669 41.6209 54.3078 41.1713 54.3078H40.7114C40.7319 54.3078 40.7591 54.3078 40.7932 54.3078H40.4355H39.6998H39.3319C39.3932 54.3078 39.4375 54.3044 39.4648 54.2976C39.4988 54.2908 39.5363 54.2738 39.5772 54.2465C39.6181 54.2193 39.6487 54.1716 39.6692 54.1034C39.6896 54.0353 39.6998 53.9468 39.6998 53.8378V47.6249C39.6998 47.5091 39.6896 47.4171 39.6692 47.349C39.6487 47.2809 39.6181 47.2332 39.5772 47.2059C39.5363 47.1787 39.4988 47.165 39.4648 47.165C39.4375 47.1582 39.3932 47.1548 39.3319 47.1548H40.4355H40.7932C40.7591 47.1548 40.7319 47.1548 40.7114 47.1548H41.1713C41.6345 47.1548 42.0535 47.1991 42.4282 47.2877C42.5576 47.3149 42.687 47.3524 42.8165 47.4001C43.232 47.5431 43.5522 47.7441 43.777 48.003C44.0018 48.255 44.1142 48.5139 44.1142 48.7796C44.1142 49.0384 44.0018 49.2973 43.777 49.5562C43.5522 49.8082 43.232 50.0058 42.8165 50.1489C42.687 50.1966 42.5542 50.234 42.4179 50.2613C42.4111 50.2681 42.4043 50.2715 42.3975 50.2715C42.4111 50.2715 42.4179 50.2715 42.4179 50.2715C42.5814 50.3055 42.7381 50.3464 42.888 50.3941ZM40.4458 47.4001C40.4389 47.4614 40.4355 47.5363 40.4355 47.6249V50.1489H41.1713C41.4846 50.1489 41.7742 50.1182 42.0399 50.0569C42.3055 49.9956 42.5235 49.9138 42.6938 49.8117C42.8642 49.7027 43.0072 49.58 43.123 49.4438C43.2456 49.3007 43.3206 49.1543 43.3478 49.0044C43.3751 48.8545 43.3751 48.7046 43.3478 48.5548C43.3206 48.3981 43.2456 48.2516 43.123 48.1154C43.0072 47.9723 42.8642 47.8497 42.6938 47.7475C42.5235 47.6385 42.3055 47.5533 42.0399 47.492C41.7742 47.4307 41.4846 47.4001 41.1713 47.4001H40.4458ZM41.1713 54.0626C41.6073 54.0626 41.999 54.0115 42.3464 53.9093C42.6938 53.8003 42.9732 53.6606 43.1843 53.4903C43.4023 53.32 43.5692 53.1259 43.685 52.9079C43.8077 52.6831 43.869 52.4583 43.869 52.2335C43.869 52.0018 43.8077 51.777 43.685 51.559C43.5692 51.3342 43.4023 51.1367 43.1843 50.9663C42.9732 50.796 42.6938 50.6598 42.3464 50.5576C41.999 50.4486 41.6073 50.3941 41.1713 50.3941H40.4355V53.8378C40.4355 53.9263 40.4389 54.0013 40.4458 54.0626H41.1713Z" fill="#665F5F"/>
<path d="M44.7407 54.4202H44.751C44.751 54.4202 44.7476 54.4202 44.7407 54.4202ZM50.8514 55.391C51.1239 55.4114 51.4237 55.3774 51.7507 55.2888C52.0777 55.2002 52.3468 55.1049 52.5579 55.0027C52.7759 54.9005 53.0655 54.754 53.4265 54.5633C53.3243 54.6246 53.2051 54.7029 53.0689 54.7983C52.9394 54.9005 52.8168 54.9959 52.701 55.0844C52.592 55.173 52.466 55.2684 52.3229 55.3706C52.1867 55.4727 52.0538 55.5613 51.9244 55.6362C51.8018 55.718 51.6587 55.7929 51.4952 55.861C51.3317 55.9292 51.1682 55.9803 51.0047 56.0143C50.848 56.0484 50.6675 56.0654 50.4631 56.0654C50.2656 56.0654 50.0612 56.0416 49.85 55.9939C49.4481 55.9053 48.9065 55.6771 48.2253 55.3092C47.5509 54.9482 47.0297 54.72 46.6618 54.6246C46.2054 54.5088 45.5685 54.4407 44.751 54.4202C44.9008 54.3249 45.1529 54.2669 45.5071 54.2465C45.5821 54.1852 45.6195 54.0524 45.6195 53.848V47.6249C45.6195 47.5159 45.6093 47.4273 45.5889 47.3592C45.5685 47.2911 45.5378 47.2434 45.4969 47.2161C45.456 47.1889 45.4186 47.1719 45.3845 47.165C45.3573 47.1582 45.313 47.1548 45.2517 47.1548H46.7129C46.6516 47.1548 46.6039 47.1582 46.5699 47.165C46.5426 47.1719 46.5086 47.1889 46.4677 47.2161C46.4268 47.2366 46.3962 47.2809 46.3757 47.349C46.3621 47.4171 46.3553 47.5057 46.3553 47.6147V53.8582C46.3553 53.94 46.3587 54.0115 46.3655 54.0728C46.3655 54.1614 46.3757 54.2295 46.3962 54.2772C46.512 54.2908 46.6142 54.3044 46.7027 54.318C46.9275 54.3453 47.1694 54.393 47.4282 54.4611C47.6939 54.5292 47.9221 54.5939 48.1129 54.6553C48.3036 54.7166 48.5386 54.7949 48.818 54.8903C49.1041 54.9925 49.3323 55.0708 49.5026 55.1253C49.9795 55.2684 50.4291 55.3569 50.8514 55.391ZM51.9142 53.8684C51.4441 54.1886 50.9332 54.3487 50.3814 54.3487C49.8296 54.3487 49.3187 54.1886 48.8486 53.8684C48.3786 53.5414 48.0073 53.102 47.7348 52.5502C47.4623 51.9916 47.326 51.3853 47.326 50.7313C47.326 50.0773 47.4623 49.4744 47.7348 48.9226C48.0073 48.364 48.3786 47.9246 48.8486 47.6044C49.3187 47.2774 49.8296 47.1139 50.3814 47.1139C50.9332 47.1139 51.4441 47.2774 51.9142 47.6044C52.3842 47.9246 52.7521 48.364 53.0178 48.9226C53.2903 49.4744 53.4265 50.0773 53.4265 50.7313C53.4265 51.3853 53.2903 51.9916 53.0178 52.5502C52.7521 53.102 52.3842 53.5414 51.9142 53.8684ZM50.6266 47.6453C50.2043 47.4682 49.7921 47.4409 49.3902 47.5636C48.9883 47.6862 48.6613 47.9485 48.4092 48.3504C48.1572 48.7455 48.0107 49.2053 47.9698 49.7299C47.9289 50.2545 47.9937 50.8199 48.164 51.4262C48.3479 51.9984 48.6136 52.4991 48.961 52.9283C49.3084 53.3507 49.6968 53.6504 50.1259 53.8275C50.5551 54.0047 50.9707 54.0319 51.3726 53.9093C51.7745 53.7799 52.1015 53.5176 52.3536 53.1225C52.6056 52.7273 52.7487 52.2675 52.7828 51.743C52.8236 51.2116 52.7589 50.6462 52.5886 50.0467C52.4115 49.4676 52.1458 48.9669 51.7916 48.5445C51.4441 48.1154 51.0558 47.8156 50.6266 47.6453Z" fill="#665F5F"/>
<path d="M59.0054 48.6263C59.0054 48.674 59.002 48.7183 58.9952 48.7591C58.9952 48.7455 58.9952 48.7251 58.9952 48.6978C59.002 48.6638 59.0054 48.6399 59.0054 48.6263ZM58.9339 51.5182C59.2813 51.9541 59.4005 52.414 59.2915 52.8977C59.1893 53.3745 58.893 53.7492 58.4025 54.0217C58.1641 54.1579 57.8371 54.2465 57.4215 54.2874C57.0128 54.3214 56.5972 54.318 56.1748 54.2772C55.7593 54.2295 55.371 54.1545 55.0099 54.0524L54.0596 53.7765V52.632C54.0596 52.8023 54.1141 52.9896 54.2231 53.194C54.3321 53.3916 54.4479 53.5278 54.5705 53.6027C54.591 53.6096 54.6693 53.647 54.8056 53.7151C54.9418 53.7765 55.0304 53.8139 55.0712 53.8275C55.4459 53.9229 55.8308 53.9808 56.2259 54.0013C56.6279 54.0217 57.006 54.0047 57.3602 53.9502C57.7144 53.8889 58.0074 53.7628 58.239 53.5721C58.4774 53.3813 58.6035 53.1361 58.6171 52.8363C58.6239 52.632 58.583 52.4378 58.4945 52.2539C58.4059 52.0631 58.2935 51.9031 58.1572 51.7736C58.0278 51.6374 57.8541 51.5011 57.6361 51.3649C57.4249 51.2286 57.2342 51.1196 57.0639 51.0379C56.8936 50.9493 56.6824 50.8471 56.4303 50.7313C56.1851 50.6155 55.9977 50.5235 55.8683 50.4554C55.623 50.326 55.4357 50.2238 55.3063 50.1489C55.1836 50.0739 55.0304 49.9581 54.8464 49.8014C54.6625 49.6447 54.5228 49.4847 54.4275 49.3212C54.2367 48.9669 54.2095 48.6025 54.3457 48.2278C54.482 47.8531 54.7272 47.5772 55.0815 47.4001C55.4493 47.2161 55.933 47.131 56.5325 47.1446C57.3636 47.1719 58.1879 47.3319 59.0054 47.6249C59.0054 47.8497 59.0054 48.1835 59.0054 48.6263C58.9918 48.5173 58.9611 48.4117 58.9134 48.3095C58.8657 48.2005 58.801 48.1052 58.7193 48.0234C58.6443 47.9348 58.5592 47.8599 58.4638 47.7986C58.2186 47.6351 57.8541 47.5159 57.3704 47.4409C57.2546 47.4273 57.1422 47.4137 57.0332 47.4001C56.9242 47.3864 56.7777 47.3728 56.5938 47.3592C56.4167 47.3456 56.2532 47.3422 56.1033 47.349C55.9534 47.3558 55.7968 47.3762 55.6333 47.4103C55.4766 47.4375 55.3437 47.4818 55.2347 47.5431C55.1325 47.6044 55.0508 47.6896 54.9895 47.7986C54.935 47.9076 54.918 48.037 54.9384 48.1869C54.9588 48.3231 55.0201 48.4764 55.1223 48.6467C55.2858 48.9124 55.4936 49.1543 55.7457 49.3723C56.0045 49.5902 56.2736 49.7776 56.5529 49.9343C56.8322 50.0841 57.1115 50.234 57.3909 50.3839C57.6702 50.527 57.9495 50.6973 58.2288 50.8948C58.5081 51.0856 58.7431 51.2933 58.9339 51.5182Z" fill="#665F5F"/>
<path d="M64.9529 48.6263C64.9529 48.674 64.9495 48.7183 64.9427 48.7591C64.9427 48.7455 64.9427 48.7251 64.9427 48.6978C64.9495 48.6638 64.9529 48.6399 64.9529 48.6263ZM64.8814 51.5182C65.2288 51.9541 65.348 52.414 65.239 52.8977C65.1368 53.3745 64.8405 53.7492 64.35 54.0217C64.1116 54.1579 63.7846 54.2465 63.369 54.2874C62.9603 54.3214 62.5447 54.318 62.1224 54.2772C61.7068 54.2295 61.3185 54.1545 60.9575 54.0524L60.0071 53.7765V52.632C60.0071 52.8023 60.0616 52.9896 60.1706 53.194C60.2796 53.3916 60.3954 53.5278 60.5181 53.6027C60.5385 53.6096 60.6168 53.647 60.7531 53.7151C60.8893 53.7765 60.9779 53.8139 61.0188 53.8275C61.3934 53.9229 61.7783 53.9808 62.1735 54.0013C62.5754 54.0217 62.9535 54.0047 63.3077 53.9502C63.662 53.8889 63.9549 53.7628 64.1865 53.5721C64.4249 53.3813 64.551 53.1361 64.5646 52.8363C64.5714 52.632 64.5305 52.4378 64.442 52.2539C64.3534 52.0631 64.241 51.9031 64.1048 51.7736C63.9753 51.6374 63.8016 51.5011 63.5836 51.3649C63.3724 51.2286 63.1817 51.1196 63.0114 51.0379C62.8411 50.9493 62.6299 50.8471 62.3778 50.7313C62.1326 50.6155 61.9452 50.5235 61.8158 50.4554C61.5706 50.326 61.3832 50.2238 61.2538 50.1489C61.1312 50.0739 60.9779 49.9581 60.794 49.8014C60.61 49.6447 60.4704 49.4847 60.375 49.3212C60.1842 48.9669 60.157 48.6025 60.2932 48.2278C60.4295 47.8531 60.6747 47.5772 61.029 47.4001C61.3968 47.2161 61.8805 47.131 62.48 47.1446C63.3111 47.1719 64.1354 47.3319 64.9529 47.6249C64.9529 47.8497 64.9529 48.1835 64.9529 48.6263C64.9393 48.5173 64.9086 48.4117 64.8609 48.3095C64.8133 48.2005 64.7485 48.1052 64.6668 48.0234C64.5919 47.9348 64.5067 47.8599 64.4113 47.7986C64.1661 47.6351 63.8016 47.5159 63.3179 47.4409C63.2021 47.4273 63.0897 47.4137 62.9807 47.4001C62.8717 47.3864 62.7253 47.3728 62.5413 47.3592C62.3642 47.3456 62.2007 47.3422 62.0508 47.349C61.901 47.3558 61.7443 47.3762 61.5808 47.4103C61.4241 47.4375 61.2913 47.4818 61.1823 47.5431C61.0801 47.6044 60.9983 47.6896 60.937 47.7986C60.8825 47.9076 60.8655 48.037 60.8859 48.1869C60.9064 48.3231 60.9677 48.4764 61.0699 48.6467C61.2334 48.9124 61.4411 49.1543 61.6932 49.3723C61.9521 49.5902 62.2211 49.7776 62.5005 49.9343C62.7798 50.0841 63.0591 50.234 63.3384 50.3839C63.6177 50.527 63.897 50.6973 64.1763 50.8948C64.4556 51.0856 64.6906 51.2933 64.8814 51.5182Z" fill="#665F5F"/>
<path d="M67.4977 47.5942C67.9677 47.274 68.4786 47.1139 69.0304 47.1139C69.5891 47.1139 70.1 47.274 70.5632 47.5942C71.0333 47.9144 71.4045 48.3538 71.677 48.9124C71.9495 49.4642 72.0858 50.0705 72.0858 50.7313C72.0858 51.3853 71.9495 51.9916 71.677 52.5502C71.4045 53.102 71.0333 53.538 70.5632 53.8582C70.1 54.1784 69.5891 54.3385 69.0304 54.3385C68.4786 54.3385 67.9677 54.1784 67.4977 53.8582C67.0344 53.538 66.6665 53.102 66.394 52.5502C66.1216 51.9916 65.9853 51.3853 65.9853 50.7313C65.9853 50.0705 66.1216 49.4642 66.394 48.9124C66.6665 48.3538 67.0344 47.9144 67.4977 47.5942ZM70.0319 53.8991C70.427 53.7765 70.7506 53.5176 71.0026 53.1225C71.2615 52.7205 71.408 52.2573 71.442 51.7327C71.4829 51.2014 71.4182 50.6359 71.2479 50.0365C70.9754 49.1577 70.5258 48.4764 69.899 47.9927C69.2723 47.5091 68.6558 47.3626 68.0495 47.5533C67.6475 47.6828 67.3171 47.9451 67.0583 48.3402C66.8062 48.7353 66.6597 49.1985 66.6189 49.7299C66.5848 50.2545 66.6529 50.8165 66.8232 51.416C67.0957 52.2948 67.5453 52.976 68.1721 53.4597C68.7988 53.9434 69.4187 54.0898 70.0319 53.8991Z" fill="#665F5F"/>
<path d="M79.0341 53.8378C79.0341 53.9536 79.0409 54.0455 79.0545 54.1137C79.075 54.1818 79.1056 54.2295 79.1465 54.2567C79.1942 54.2772 79.2317 54.2908 79.2589 54.2976C79.293 54.3044 79.3407 54.3078 79.402 54.3078H77.9305C77.9782 54.3078 78.0156 54.3078 78.0429 54.3078C78.0701 54.301 78.1008 54.2908 78.1349 54.2772C78.1757 54.2635 78.2064 54.2431 78.2268 54.2159C78.2473 54.1818 78.2643 54.1341 78.2779 54.0728C78.2915 54.0115 78.2984 53.9331 78.2984 53.8378V47.9621L76.224 53.664V53.6743L76.0196 54.2159L75.989 54.3078H75.6722L75.662 54.2772L75.6109 54.1341L75.5087 53.8582L73.4139 48.0949V53.8378C73.4139 53.9468 73.4207 54.0353 73.4343 54.1034C73.4548 54.1716 73.4854 54.2193 73.5263 54.2465C73.5672 54.2738 73.6012 54.2908 73.6285 54.2976C73.6625 54.3044 73.7102 54.3078 73.7715 54.3078H72.8008C72.8621 54.3078 72.9064 54.3044 72.9336 54.2976C72.9677 54.2908 73.0051 54.2738 73.046 54.2465C73.0869 54.2193 73.1175 54.1716 73.138 54.1034C73.1584 54.0353 73.1686 53.9468 73.1686 53.8378V47.4205L73.138 47.3388C73.1039 47.2774 73.0256 47.2332 72.9029 47.2059C72.7871 47.1719 72.6815 47.1548 72.5862 47.1548H74.2109C74.0679 47.1548 73.9725 47.1855 73.9248 47.2468C73.9044 47.2672 73.901 47.2945 73.9146 47.3285L76.0911 53.3166L78.2677 47.3388C78.2473 47.2774 78.2166 47.2332 78.1757 47.2059C78.1349 47.1787 78.0974 47.165 78.0633 47.165C78.0361 47.1582 77.9918 47.1548 77.9305 47.1548H79.402C79.3407 47.1548 79.293 47.1582 79.2589 47.165C79.2317 47.165 79.1942 47.1787 79.1465 47.2059C79.1056 47.2332 79.075 47.2809 79.0545 47.349C79.0409 47.4171 79.0341 47.5057 79.0341 47.6147V53.8378Z" fill="#665F5F"/>
<path d="M65.2175 44.1205H76.5876C75.4463 38.0319 72.7287 32.4849 68.8654 27.9022M29.3876 44.1205L5.14581 44.1329C8.25009 27.5388 23.0628 14.9646 40.8678 14.9646C46.2949 14.9646 51.444 16.1328 56.0682 18.227C56.1923 18.2832 56.316 18.3401 56.4394 18.3976M75.0661 62.6463C70.0364 76.4116 56.6237 86.2581 40.8678 86.2581C26.2481 86.2581 13.6458 77.7804 7.88611 65.5607" stroke="#665F5F" stroke-width="0.3" stroke-linecap="round" stroke-linejoin="round"/>
<path d="M4.67103 57.2395H3.39371V58.2535H4.61207V58.5129H3.39371V59.7312H3.11859V56.9801H4.67103V57.2395Z" fill="#665F5F"/>
<path d="M6.83126 59.4718H8.08893V59.7312H6.55615V56.9801H6.83126V59.4718Z" fill="#665F5F"/>
<path d="M11.9776 59.3657C11.7025 59.6408 11.3658 59.7784 10.9675 59.7784C10.5693 59.7784 10.2326 59.6408 9.95748 59.3657C9.68236 59.088 9.5448 58.7513 9.5448 58.3557C9.5448 57.96 9.68236 57.6246 9.95748 57.3495C10.2326 57.0718 10.5693 56.9329 10.9675 56.9329C11.3658 56.9329 11.7025 57.0718 11.9776 57.3495C12.2527 57.6246 12.3903 57.96 12.3903 58.3557C12.3903 58.7513 12.2527 59.088 11.9776 59.3657ZM10.1501 59.1771C10.3701 59.3998 10.6426 59.5111 10.9675 59.5111C11.2924 59.5111 11.5649 59.3998 11.785 59.1771C12.0051 58.9517 12.1152 58.6779 12.1152 58.3557C12.1152 58.0334 12.0051 57.7609 11.785 57.5382C11.5649 57.3128 11.2924 57.2002 10.9675 57.2002C10.6426 57.2002 10.3701 57.3128 10.1501 57.5382C9.92996 57.7609 9.81992 58.0334 9.81992 58.3557C9.81992 58.6779 9.92996 58.9517 10.1501 59.1771Z" fill="#665F5F"/>
<path d="M15.9656 59.7312L15.3211 58.6308H14.5508V59.7312H14.2756V56.9801H15.3761C15.6041 56.9801 15.798 57.0613 15.9578 57.2238C16.1202 57.3836 16.2015 57.5775 16.2015 57.8054C16.2015 57.9915 16.1451 58.1578 16.0325 58.3046C15.9224 58.4487 15.7809 58.5456 15.608 58.5954L16.2801 59.7312H15.9656ZM14.5508 57.2395V58.3714H15.3761C15.5281 58.3714 15.6578 58.3164 15.7652 58.2063C15.8726 58.0936 15.9263 57.96 15.9263 57.8054C15.9263 57.6482 15.8726 57.5146 15.7652 57.4045C15.6578 57.2945 15.5281 57.2395 15.3761 57.2395H14.5508Z" fill="#665F5F"/>
<path d="M18.0893 56.9801H18.3645V59.7312H18.0893V56.9801Z" fill="#665F5F"/>
<path d="M21.2363 59.7784C20.9847 59.7784 20.7686 59.7194 20.5878 59.6015C20.4096 59.481 20.2852 59.3159 20.2144 59.1063L20.4502 58.9688C20.5 59.1391 20.5917 59.2727 20.7253 59.3697C20.859 59.464 21.0306 59.5111 21.2402 59.5111C21.4446 59.5111 21.6031 59.4666 21.7158 59.3775C21.8311 59.2858 21.8887 59.1653 21.8887 59.0159C21.8887 58.8718 21.8363 58.7631 21.7315 58.6897C21.6267 58.6164 21.4537 58.5404 21.2127 58.4618C20.9271 58.3675 20.7385 58.2915 20.6467 58.2338C20.4371 58.1081 20.3323 57.926 20.3323 57.6875C20.3323 57.4543 20.4136 57.2709 20.576 57.1373C20.7385 57.001 20.9389 56.9329 21.1773 56.9329C21.3922 56.9329 21.5782 56.9893 21.7354 57.1019C21.8926 57.212 22.0092 57.3535 22.0852 57.5264L21.8533 57.6561C21.7276 57.3521 21.5022 57.2002 21.1773 57.2002C21.007 57.2002 20.8695 57.2421 20.7647 57.3259C20.6598 57.4098 20.6074 57.5264 20.6074 57.6757C20.6074 57.812 20.6546 57.9142 20.7489 57.9823C20.8433 58.0504 20.9992 58.1198 21.2166 58.1906C21.3162 58.2247 21.3869 58.2495 21.4289 58.2653C21.4734 58.2784 21.5363 58.3019 21.6175 58.336C21.7014 58.3675 21.7629 58.3963 21.8022 58.4225C21.8415 58.4461 21.8887 58.4801 21.9437 58.5247C22.0014 58.5666 22.042 58.6098 22.0656 58.6544C22.0918 58.6963 22.114 58.7487 22.1324 58.8116C22.1533 58.8718 22.1638 58.9373 22.1638 59.0081C22.1638 59.2413 22.0787 59.4286 21.9083 59.5701C21.738 59.709 21.514 59.7784 21.2363 59.7784Z" fill="#665F5F"/>
<path d="M25.6805 56.9801V57.2395H24.8355V59.7312H24.5604V57.2395H23.7154V56.9801H25.6805Z" fill="#665F5F"/>
<path d="M29.886 56.9801H30.1611V59.7312H29.886V56.9801Z" fill="#665F5F"/>
<path d="M33.9752 56.9801H34.2504V59.7312H34.0145L32.4818 57.491V59.7312H32.2066V56.9801H32.4425L33.9752 59.2203V56.9801Z" fill="#665F5F"/>
<path d="M38.9654 59.4718H40.2231V59.7312H38.6903V56.9801H38.9654V59.4718Z" fill="#665F5F"/>
<path d="M44.1117 59.3657C43.8366 59.6408 43.4999 59.7784 43.1017 59.7784C42.7034 59.7784 42.3667 59.6408 42.0916 59.3657C41.8165 59.088 41.6789 58.7513 41.6789 58.3557C41.6789 57.96 41.8165 57.6246 42.0916 57.3495C42.3667 57.0718 42.7034 56.9329 43.1017 56.9329C43.4999 56.9329 43.8366 57.0718 44.1117 57.3495C44.3869 57.6246 44.5244 57.96 44.5244 58.3557C44.5244 58.7513 44.3869 59.088 44.1117 59.3657ZM42.2842 59.1771C42.5043 59.3998 42.7768 59.5111 43.1017 59.5111C43.4266 59.5111 43.6991 59.3998 43.9192 59.1771C44.1392 58.9517 44.2493 58.6779 44.2493 58.3557C44.2493 58.0334 44.1392 57.7609 43.9192 57.5382C43.6991 57.3128 43.4266 57.2002 43.1017 57.2002C42.7768 57.2002 42.5043 57.3128 42.2842 57.5382C42.0641 57.7609 41.954 58.0334 41.954 58.3557C41.954 58.6779 42.0641 58.9517 42.2842 59.1771Z" fill="#665F5F"/>
<path d="M47.1746 59.7784C46.9231 59.7784 46.7069 59.7194 46.5261 59.6015C46.348 59.481 46.2235 59.3159 46.1528 59.1063L46.3886 58.9688C46.4384 59.1391 46.5301 59.2727 46.6637 59.3697C46.7973 59.464 46.969 59.5111 47.1786 59.5111C47.3829 59.5111 47.5415 59.4666 47.6541 59.3775C47.7694 59.2858 47.827 59.1653 47.827 59.0159C47.827 58.8718 47.7746 58.7631 47.6698 58.6897C47.565 58.6164 47.3921 58.5404 47.1511 58.4618C46.8655 58.3675 46.6768 58.2915 46.5851 58.2338C46.3755 58.1081 46.2707 57.926 46.2707 57.6875C46.2707 57.4543 46.3519 57.2709 46.5144 57.1373C46.6768 57.001 46.8773 56.9329 47.1157 56.9329C47.3305 56.9329 47.5166 56.9893 47.6738 57.1019C47.831 57.212 47.9476 57.3535 48.0236 57.5264L47.7917 57.6561C47.6659 57.3521 47.4406 57.2002 47.1157 57.2002C46.9454 57.2002 46.8078 57.2421 46.703 57.3259C46.5982 57.4098 46.5458 57.5264 46.5458 57.6757C46.5458 57.812 46.593 57.9142 46.6873 57.9823C46.7816 58.0504 46.9375 58.1198 47.155 58.1906C47.2546 58.2247 47.3253 58.2495 47.3672 58.2653C47.4118 58.2784 47.4746 58.3019 47.5559 58.336C47.6397 58.3675 47.7013 58.3963 47.7406 58.4225C47.7799 58.4461 47.8271 58.4801 47.8821 58.5247C47.9397 58.5666 47.9803 58.6098 48.0039 58.6544C48.0301 58.6963 48.0524 58.7487 48.0707 58.8116C48.0917 58.8718 48.1022 58.9373 48.1022 59.0081C48.1022 59.2413 48.017 59.4286 47.8467 59.5701C47.6764 59.709 47.4524 59.7784 47.1746 59.7784Z" fill="#665F5F"/>
<path d="M54.2183 59.7312L53.9628 59.0552H52.658L52.4025 59.7312H52.1117L53.1689 56.9801H53.4519L54.5091 59.7312H54.2183ZM52.7562 58.7958H53.8645L53.3104 57.322L52.7562 58.7958Z" fill="#665F5F"/>
<path d="M58.0458 56.9801H58.3209V59.7312H58.0851L56.5523 57.491V59.7312H56.2772V56.9801H56.513L58.0458 59.2203V56.9801Z" fill="#665F5F"/>
<path d="M62.9927 58.4225V58.564C62.9927 58.9046 62.8709 59.1928 62.6272 59.4286C62.3836 59.6618 62.0574 59.7784 61.6486 59.7784C61.232 59.7784 60.8875 59.6408 60.615 59.3657C60.3425 59.0906 60.2062 58.7539 60.2062 58.3557C60.2062 57.9574 60.3425 57.6207 60.615 57.3456C60.8875 57.0705 61.232 56.9329 61.6486 56.9329C61.9028 56.9329 62.136 56.9945 62.3482 57.1176C62.5604 57.2408 62.7242 57.4045 62.8395 57.6089L62.5958 57.7504C62.5093 57.5827 62.3809 57.4491 62.2106 57.3495C62.0403 57.25 61.853 57.2002 61.6486 57.2002C61.3054 57.2002 61.025 57.3115 60.8075 57.5342C60.5901 57.757 60.4813 58.0308 60.4813 58.3557C60.4813 58.6806 60.5901 58.9544 60.8075 59.1771C61.025 59.3998 61.3054 59.5111 61.6486 59.5111C61.9578 59.5111 62.2054 59.4339 62.3914 59.2793C62.5775 59.1221 62.6836 58.9229 62.7098 58.6819H61.6172V58.4225H62.9927Z" fill="#665F5F"/>
<path d="M65.1546 59.4718H66.4909V59.7312H64.8795V56.9801H66.4712V57.2395H65.1546V58.2142H66.373V58.4736H65.1546V59.4718Z" fill="#665F5F"/>
<path d="M68.6536 59.4718H69.9112V59.7312H68.3785V56.9801H68.6536V59.4718Z" fill="#665F5F"/>
<path d="M71.9952 59.4718H73.3315V59.7312H71.7201V56.9801H73.3118V57.2395H71.9952V58.2142H73.2136V58.4736H71.9952V59.4718Z" fill="#665F5F"/>
<path d="M76.0837 59.7784C75.8322 59.7784 75.616 59.7194 75.4352 59.6015C75.257 59.481 75.1326 59.3159 75.0618 59.1063L75.2976 58.9688C75.3474 59.1391 75.4391 59.2727 75.5728 59.3697C75.7064 59.464 75.878 59.5111 76.0876 59.5111C76.292 59.5111 76.4505 59.4666 76.5632 59.3775C76.6785 59.2858 76.7361 59.1653 76.7361 59.0159C76.7361 58.8718 76.6837 58.7631 76.5789 58.6897C76.4741 58.6164 76.3012 58.5404 76.0601 58.4618C75.7745 58.3675 75.5859 58.2915 75.4941 58.2338C75.2845 58.1081 75.1797 57.926 75.1797 57.6875C75.1797 57.4543 75.261 57.2709 75.4234 57.1373C75.5859 57.001 75.7863 56.9329 76.0247 56.9329C76.2396 56.9329 76.4256 56.9893 76.5828 57.1019C76.74 57.212 76.8566 57.3535 76.9326 57.5264L76.7007 57.6561C76.575 57.3521 76.3496 57.2002 76.0247 57.2002C75.8544 57.2002 75.7169 57.2421 75.6121 57.3259C75.5073 57.4098 75.4548 57.5264 75.4548 57.6757C75.4548 57.812 75.502 57.9142 75.5963 57.9823C75.6907 58.0504 75.8466 58.1198 76.064 58.1906C76.1636 58.2247 76.2343 58.2495 76.2763 58.2653C76.3208 58.2784 76.3837 58.3019 76.4649 58.336C76.5488 58.3675 76.6103 58.3963 76.6496 58.4225C76.6889 58.4461 76.7361 58.4801 76.7911 58.5247C76.8488 58.5666 76.8894 58.6098 76.913 58.6544C76.9392 58.6963 76.9614 58.7487 76.9798 58.8116C77.0007 58.8718 77.0112 58.9373 77.0112 59.0081C77.0112 59.2413 76.9261 59.4286 76.7558 59.5701C76.5854 59.709 76.3614 59.7784 76.0837 59.7784Z" fill="#665F5F"/>
<mask id="path-29-inside-1_378_218" fill="white">
<path fill-rule="evenodd" clip-rule="evenodd" d="M66.4648 16.1952C66.3799 16.2704 66.1722 16.5119 66.0032 16.732C65.4809 17.4124 64.3916 18.7151 63.695 19.4926C63.3293 19.9007 62.9855 20.3057 62.9311 20.3927C62.7698 20.6499 62.4953 20.4526 62.4562 20.0515C62.4078 19.5536 61.7309 18.3415 61.5013 18.3415C61.3776 18.3415 61.3585 18.5095 61.4332 18.9406C61.5459 19.5912 61.4799 20.9109 61.2979 21.6424C61.1909 22.0728 61.1078 22.173 59.9758 23.2382C59.1082 24.0544 58.7432 24.352 58.6804 24.2942C58.6324 24.2499 58.5122 23.9701 58.4133 23.6725L58.2335 23.1314L58.7033 22.637C59.6683 21.6214 59.9405 20.1936 59.4257 18.8473C59.1658 18.1679 59.0775 18.0382 58.701 17.7842C58.1605 17.4197 57.7343 17.3578 57.0557 17.5454C56.5895 17.6743 56.4519 17.7642 55.9914 18.2406C55.7005 18.5417 55.4404 18.7683 55.4133 18.7443C55.3863 18.7204 55.3689 18.5317 55.3748 18.3251L55.3855 17.9494L55.14 18.1218C54.4309 18.6202 54.1393 20.0476 54.5349 21.0833C54.9361 22.1334 55.849 23.0572 56.7742 23.349C57.1656 23.4725 57.183 23.4922 57.3715 24.0256C57.4782 24.3277 57.5753 24.7671 57.5874 25.0021L57.6093 25.4294L56.6644 26.1789C56.1447 26.5912 55.689 26.9303 55.6519 26.9324C55.6147 26.9345 55.5165 26.7939 55.4336 26.62C55.1472 26.0194 54.4123 24.8669 54.3007 24.8436C54.1292 24.8078 54.0367 25.1981 54.1649 25.417C54.2275 25.5239 54.3123 25.9738 54.3533 26.4168C54.4279 27.2214 54.4288 27.2231 55.0236 27.8013L55.619 28.3802L55.9921 28.1502C56.1973 28.0238 56.6094 27.7079 56.9077 27.4481C57.561 26.8796 57.8339 26.7948 58.9762 26.8049C59.4566 26.8092 59.894 26.7735 59.9482 26.7256C60.0023 26.6777 59.9359 26.4686 59.8006 26.261C59.2829 25.4665 59.2646 25.5558 60.1237 24.6841C60.7802 24.018 60.9536 23.8849 61.2547 23.8163C61.7444 23.7048 62.4503 23.853 62.7679 24.1341C63.0953 24.424 64.3846 25.0377 64.6835 25.0461C64.8724 25.0513 64.878 24.996 64.7232 24.6609C64.6236 24.4457 64.4269 24.1354 64.2858 23.9714L64.0293 23.6733L64.5357 23.225C65.0309 22.7866 65.3822 22.2326 65.318 21.9916C65.2677 21.8031 64.1092 22.1873 63.5803 22.5678C63.0808 22.9271 62.7091 22.9616 62.3889 22.6782C62.2451 22.5509 62.31 22.4368 63.0105 21.5828C63.9138 20.4818 64.8065 19.2636 65.774 17.8119C66.5859 16.5936 66.9333 15.7805 66.4648 16.1952ZM66.3044 21.9048C65.716 21.812 65.5622 21.9047 65.3786 22.4639C65.2922 22.7269 65.0661 23.1212 64.8761 23.3401L64.5307 23.7381L64.8593 24.5049C65.2254 25.3592 65.2657 25.3849 66.1179 25.3054C66.8388 25.2382 67.4 24.8175 67.6342 24.1687C67.7289 23.9066 67.7651 23.5665 67.7148 23.4129C67.6317 23.1597 67.5608 23.1134 66.9508 22.9124C66.5809 22.7907 66.2784 22.6567 66.2783 22.6148C66.2783 22.5727 66.4386 22.5019 66.6343 22.4573C67.2182 22.3244 67.0366 22.0204 66.3044 21.9048ZM44.7377 18.4812C43.7997 17.9056 43.0691 17.6377 42.0504 17.4957C41.2384 17.3826 40.4133 17.5111 39.5304 17.8883L38.8125 18.195L38.3614 17.7957C37.7361 17.2422 36.4118 16.655 35.4038 16.4846C34.0034 16.2476 32.3902 16.6636 31.4434 17.5058C30.6368 18.2234 30.1009 19.3917 30.2198 20.1737C30.3558 21.0674 30.63 21.4858 31.7642 22.5291C32.4718 23.1801 32.9071 23.6519 33.087 23.9625C33.4564 24.6006 33.8258 24.9191 34.0087 24.7572C34.1886 24.598 34.1728 23.2538 33.9876 22.9552C33.7616 22.5909 33.7804 22.4111 34.0599 22.263C34.1994 22.1891 34.3731 22.141 34.4456 22.1562C34.6699 22.203 34.8065 22.5114 34.7174 22.7691C34.5617 23.2189 34.5795 25.2322 34.7404 25.3747C34.826 25.4504 34.9162 25.4945 34.9409 25.4726C34.9657 25.4507 35.1226 24.9179 35.2896 24.2886C35.4836 23.5579 35.5559 23.013 35.4899 22.7808C35.3702 22.3611 35.5858 22.0959 36.0306 22.1155C36.4074 22.1322 36.532 22.4551 36.2878 22.7828C36.0772 23.0654 35.4029 25.3979 35.4482 25.6866C35.5117 26.0911 35.7525 25.8748 36.1815 25.0282C36.4218 24.5539 36.7608 23.9371 36.935 23.6575C37.1465 23.3177 37.2288 23.0527 37.1831 22.8586C37.102 22.5141 37.2953 22.3081 37.6833 22.3252C37.9037 22.335 37.9913 22.3922 38.0931 22.5927C38.1981 22.7997 38.1715 22.893 37.9525 23.0869C37.7159 23.2963 36.636 25.0072 36.3393 25.6425C36.1966 25.9479 36.4268 25.9797 36.736 25.6974C37.2415 25.2355 38.5513 23.5981 38.5719 23.4023C38.5836 23.291 38.7047 23.1214 38.841 23.0256C39.0488 22.8795 39.1341 22.8845 39.3701 23.0565C39.5987 23.2233 39.6315 23.3088 39.5453 23.513C39.476 23.6768 39.3394 23.8084 39.1524 23.8911C38.8835 24.0101 37.5515 25.4128 37.301 25.8409C37.1876 26.0345 37.2681 26.1492 37.4853 26.1038C37.7741 26.0434 39.7316 24.5677 39.8291 24.3368C39.9559 24.0368 40.3837 23.9275 40.6184 24.1353C40.9699 24.4464 40.7738 24.838 40.2149 24.941C40.0541 24.9707 39.5654 25.2449 39.1289 25.5504C37.2838 26.8419 37.3167 26.8149 37.4492 26.9322C37.5821 27.0498 37.8764 26.9448 39.498 26.2021C40.1131 25.9203 40.5618 25.6572 40.6502 25.5265C40.7882 25.3226 41.2203 25.2284 41.378 25.3679C41.4706 25.4499 41.5404 26.0733 41.4645 26.1406C41.4286 26.1723 41.2007 26.2097 40.9579 26.2238C40.4766 26.2516 37.758 27.3965 37.6464 27.6184C37.5296 27.8504 37.6916 27.8617 38.3843 27.6694C38.758 27.5656 39.4514 27.4074 39.9251 27.3179C40.3987 27.2284 40.8594 27.0937 40.9487 27.0187C41.1584 26.8427 41.5653 26.7943 41.7157 26.9273C41.8798 27.0726 41.8378 27.4908 41.6417 27.6644C41.541 27.7535 41.3194 27.7742 41.0671 27.7178C40.8106 27.6605 40.2098 27.7191 39.4668 27.8739C38.2478 28.1278 37.9772 28.2399 38.1709 28.4114C38.313 28.5371 40.508 28.5088 41.0666 28.374C41.5465 28.2581 41.7608 28.3803 41.7395 28.7577C41.7168 29.1633 41.368 29.3229 40.9895 29.1011C40.6557 28.9054 39.0661 28.8238 38.8754 28.9926C38.7017 29.1464 39.0462 29.5056 39.5821 29.7292C39.9376 29.8775 40.5018 30.2731 41.4163 31.0152C42.8164 32.1512 43.0216 32.2575 43.9533 32.3284C44.9873 32.4072 46.2579 31.9815 47.031 31.2972C47.4598 30.9175 48.0136 30.03 48.1629 29.4831C48.5562 28.0418 47.9911 26.3199 46.77 25.2389C46.2091 24.7424 46.129 24.5325 46.4068 24.2866C46.4983 24.2056 46.6627 23.9025 46.7723 23.6131C47.3431 22.1039 46.9096 20.511 45.5742 19.2113C45.2426 18.8886 44.8662 18.56 44.7377 18.4812ZM57.3152 29.7229C56.7829 29.5072 56.2797 29.4182 56.067 29.502C55.9543 29.5465 55.906 29.7747 55.9252 30.1736C55.957 30.8342 55.8515 31.2205 55.4858 31.7826C55.2567 32.1347 55.2864 32.3494 55.6041 32.6368C55.7586 32.7766 56.0982 32.4035 56.1625 32.0229C56.2355 31.592 56.5765 31.3986 56.8447 31.636C57.1191 31.879 57.042 32.0885 56.5191 32.5203C56.1331 32.839 56.0532 32.9547 56.0866 33.1468C56.1706 33.6289 56.5009 33.6224 57.2286 33.1245C57.6667 32.8246 57.8384 32.8441 57.9229 33.2031C58.0162 33.5998 57.8492 33.7188 57.155 33.75C56.47 33.7807 56.4055 33.8208 56.4756 34.1725C56.5563 34.5784 56.7006 34.6431 57.4699 34.6189C58.1271 34.5981 58.1893 34.6162 58.2909 34.8565C58.4429 35.2166 58.0235 35.5306 57.6957 35.3021C57.0945 34.8827 56.5834 34.8598 56.5834 35.2523C56.5834 35.5145 56.6843 35.6045 57.0863 35.7015C57.4968 35.8005 58.3156 36.5254 58.5894 37.032C58.9419 37.6843 58.9948 37.7 59.3632 37.2618C60.0237 36.4763 60.2431 35.5112 59.9709 34.5882C59.862 34.219 59.6822 33.9464 59.2568 33.5063L58.6882 32.9178L58.7731 32.364C58.9286 31.3493 58.2368 30.096 57.3152 29.7229ZM54.0898 27.7798C52.941 27.1858 51.6849 27.3266 50.7425 28.1549C49.7082 29.064 49.408 30.3252 49.9674 31.4123C50.3542 32.1642 50.5831 32.3545 50.8336 32.1327C51.5183 31.5266 53.3228 31.2626 54.1628 31.6455C54.3889 31.7486 54.6339 31.8353 54.7071 31.838C54.9479 31.8469 55.3711 30.861 55.4114 30.1972C55.4329 29.84 55.3812 29.3579 55.2961 29.1259C55.1248 28.6583 54.5513 28.0184 54.0898 27.7798ZM54.0561 32.1514C52.7995 31.7591 51.4381 32.0734 50.7465 32.9154C50.3806 33.361 50.0895 34.0368 50.1237 34.3616C50.157 34.679 49.9942 34.7486 48.9052 34.8824L47.8845 35.0077L47.0334 34.3408C46.5653 33.9741 46.1824 33.6468 46.1823 33.6136C46.1824 33.5803 46.93 33.2146 47.8436 32.8008C48.7572 32.387 49.541 32.0165 49.5852 31.9773C49.6737 31.899 49.3618 31.0913 49.2431 31.0913C49.2025 31.0913 48.7591 31.2917 48.2578 31.5365C45.275 32.9937 45.0221 33.0871 44.0209 33.0996C43.5061 33.1061 42.4812 33.2138 41.7434 33.3392C40.5987 33.5336 40.3315 33.6178 39.9213 33.9129C39.274 34.3788 38.4642 34.6148 37.3871 34.6148C36.6716 34.6148 36.1743 34.4518 35.6035 34.1988C35.0995 33.9755 34.7286 33.9857 34.1704 33.9608C33.128 33.9144 32.342 33.7756 31.188 33.4342C30.2486 33.1563 29.9242 32.9947 30.0616 32.873C30.1004 32.8387 30.3577 32.7356 30.6334 32.6439C31.3621 32.4015 32.7015 31.2161 32.9198 30.6203C33.0041 30.3899 33.1032 30.1185 33.0628 30.0828C33.0224 30.047 32.5676 30.0509 32.3005 30.0828C31.8312 30.1386 31.9228 30.2275 31.5235 30.7299C31.189 31.151 31.0182 31.2843 30.5486 31.5282C29.5428 32.0506 28.3264 32.0783 27.6014 31.5953C27.0626 31.2365 25.4213 30.3721 24.8637 30.1535C24.6363 30.0643 24.4154 29.9605 24.3727 29.9228C24.2428 29.8078 24.5081 29.6481 25.1259 29.469C25.6739 29.3102 26.0962 29.0675 25.9893 28.9728C25.9638 28.9502 25.319 28.938 24.5564 28.9456C23.0004 28.9611 22.0307 28.7635 20.5675 28.1327C19.7198 27.7673 16.785 27.1775 15.5564 26.1367C14.8163 25.5097 13.3187 24.5686 13.2632 24.5932C13.2083 24.6175 12.5418 25.3492 12.1282 25.8198C11.4143 26.59 10.3364 28.0407 10.3364 28.0407C9.78465 28.8255 13.7705 29.5432 13.8255 29.5904C13.8807 29.6376 18.335 29.7527 18.8297 29.8462C21.4553 30.3431 26.1049 32.0003 28.2566 33.2063C29.0581 33.6554 30.6485 34.7778 31.2908 35.3475C33.1131 36.9636 34.3726 39.2258 34.739 41.5407C34.8304 42.1181 34.9167 42.6337 34.9308 42.6865C34.9602 42.7969 36.6291 43.3982 36.9011 43.3964C37.3036 43.3937 36.8918 42.5473 36.1813 41.9171C35.8161 41.5932 35.763 41.4856 35.736 41.0157C35.7022 40.4241 35.7664 40.3281 36.2957 40.179C36.7585 40.0487 37.2996 40.2452 37.8711 40.7511C38.4111 41.229 39.1141 41.4672 40.027 41.4814L40.657 41.4912L40.4122 41.0776C40.1751 40.6772 39.7285 40.2928 38.7228 39.6241L38.3112 39.3505L38.6495 38.8202C39.1525 38.0323 39.4915 36.2676 39.1536 36.197C38.9777 36.1602 38.2047 36.5887 37.8094 36.942C37.623 37.1087 37.3093 37.5437 37.1124 37.9086C36.691 38.6896 36.5506 38.8287 35.9569 39.0538C35.4466 39.2475 35.3717 39.2085 35.2253 38.674C35.0691 38.1039 34.558 37.272 33.8009 36.3557C33.4334 35.9108 33.0969 35.4877 33.0533 35.4154C32.9995 35.3264 33.3131 35.282 34.0277 35.2773C36.4663 35.2613 38.9377 35.019 42.0174 34.494C44.261 34.1116 44.7736 34.1471 45.8974 34.7626C46.518 35.1026 46.8398 35.3578 47.7522 36.2337C48.9007 37.3361 49.1858 37.513 49.4448 37.2837C49.5589 37.1827 49.5181 37.072 49.2542 36.7669C48.7613 36.1972 48.8158 36.0793 49.6917 35.8206C50.2695 35.65 50.4451 35.6386 50.5022 35.7679C50.5424 35.8587 50.723 36.1551 50.9037 36.4267C51.5973 37.4695 52.8337 37.8584 54.1732 37.455C54.8342 37.2559 54.9838 37.1713 55.3181 36.8073C55.5297 36.5769 55.7903 36.1879 55.8974 35.9426C56.5089 34.5426 55.5784 32.6266 54.0561 32.1514ZM56.9845 36.0996C56.5359 35.8546 56.4833 35.8711 56.3093 36.311C55.9116 37.3173 54.7064 38.0615 53.3508 38.1379L52.6499 38.1774L52.6946 38.4603C52.8527 39.4598 53.9558 40.5928 55.0538 40.8835C56.1773 41.181 57.3932 40.8766 58.025 40.1398C59.0809 38.9082 58.5823 36.9724 56.9845 36.0996ZM31.3746 23.0522C31.2004 23.0375 30.7696 23.1483 30.417 23.2983C28.7221 24.02 27.9835 25.9317 28.7793 27.5373C29.1977 28.3812 30.094 29.1491 31.0066 29.4455C31.7261 29.6792 33.1457 29.7229 33.3766 29.5184C33.5992 29.3214 33.8533 27.9498 33.805 27.2059C33.7206 25.9063 33.1476 24.6442 32.1603 23.5831C31.7688 23.1623 31.6388 23.0745 31.3746 23.0522ZM40.0225 30.5683C39.04 29.9023 37.6272 29.4653 36.2833 29.4118C35.3109 29.3731 33.93 29.5888 33.6687 29.8201C33.3986 30.0592 33.5021 31.3367 33.8461 32.0094C34.2577 32.8145 35.3496 33.6953 36.2894 33.9806C37.0434 34.2096 38.0258 34.1916 38.8323 33.9343C39.8525 33.6087 40.9835 32.4126 41.0286 31.6114C41.0419 31.3759 40.7172 31.0392 40.0225 30.5683ZM35.1502 27.1792C34.8783 27.1126 34.5818 27.1023 34.4915 27.1565C34.3979 27.2126 34.3098 27.5458 34.2866 27.9318C34.2642 28.3042 34.2623 28.4105 34.2149 28.588C34.1755 28.7356 34.1418 28.895 34.18 29.0064C34.2695 29.1216 34.3295 29.1202 34.7424 29.0492C35.0137 29.0026 35.4976 28.9597 35.8175 28.954C36.1376 28.9482 36.4335 28.9133 36.475 28.8766C36.5166 28.8397 36.4867 28.5928 36.4086 28.3278C36.2306 27.7244 35.8107 27.3411 35.1502 27.1792ZM41.315 36.0006C40.7696 35.8929 39.7037 35.8936 39.5821 36.0017C39.5511 36.0292 39.529 36.3659 39.5331 36.7496C39.5377 37.1825 39.4195 37.7694 39.222 38.2949L38.9034 39.1425L39.7054 39.8586C40.2745 40.3667 40.5556 40.6847 40.6735 40.9539C40.8353 41.3235 40.847 41.3318 41.1278 41.2799C41.2863 41.2506 41.6843 41.0872 42.0122 40.9168C43.1267 40.3377 43.8027 39.1265 43.5291 38.1989C43.2657 37.3056 42.4592 36.8757 41.3069 37.0142C40.1753 37.1502 40.184 36.8621 41.3207 36.5562C42.237 36.3095 42.2357 36.1823 41.315 36.0006Z"/>
</mask>
<path fill-rule="evenodd" clip-rule="evenodd" d="M66.4648 16.1952C66.3799 16.2704 66.1722 16.5119 66.0032 16.732C65.4809 17.4124 64.3916 18.7151 63.695 19.4926C63.3293 19.9007 62.9855 20.3057 62.9311 20.3927C62.7698 20.6499 62.4953 20.4526 62.4562 20.0515C62.4078 19.5536 61.7309 18.3415 61.5013 18.3415C61.3776 18.3415 61.3585 18.5095 61.4332 18.9406C61.5459 19.5912 61.4799 20.9109 61.2979 21.6424C61.1909 22.0728 61.1078 22.173 59.9758 23.2382C59.1082 24.0544 58.7432 24.352 58.6804 24.2942C58.6324 24.2499 58.5122 23.9701 58.4133 23.6725L58.2335 23.1314L58.7033 22.637C59.6683 21.6214 59.9405 20.1936 59.4257 18.8473C59.1658 18.1679 59.0775 18.0382 58.701 17.7842C58.1605 17.4197 57.7343 17.3578 57.0557 17.5454C56.5895 17.6743 56.4519 17.7642 55.9914 18.2406C55.7005 18.5417 55.4404 18.7683 55.4133 18.7443C55.3863 18.7204 55.3689 18.5317 55.3748 18.3251L55.3855 17.9494L55.14 18.1218C54.4309 18.6202 54.1393 20.0476 54.5349 21.0833C54.9361 22.1334 55.849 23.0572 56.7742 23.349C57.1656 23.4725 57.183 23.4922 57.3715 24.0256C57.4782 24.3277 57.5753 24.7671 57.5874 25.0021L57.6093 25.4294L56.6644 26.1789C56.1447 26.5912 55.689 26.9303 55.6519 26.9324C55.6147 26.9345 55.5165 26.7939 55.4336 26.62C55.1472 26.0194 54.4123 24.8669 54.3007 24.8436C54.1292 24.8078 54.0367 25.1981 54.1649 25.417C54.2275 25.5239 54.3123 25.9738 54.3533 26.4168C54.4279 27.2214 54.4288 27.2231 55.0236 27.8013L55.619 28.3802L55.9921 28.1502C56.1973 28.0238 56.6094 27.7079 56.9077 27.4481C57.561 26.8796 57.8339 26.7948 58.9762 26.8049C59.4566 26.8092 59.894 26.7735 59.9482 26.7256C60.0023 26.6777 59.9359 26.4686 59.8006 26.261C59.2829 25.4665 59.2646 25.5558 60.1237 24.6841C60.7802 24.018 60.9536 23.8849 61.2547 23.8163C61.7444 23.7048 62.4503 23.853 62.7679 24.1341C63.0953 24.424 64.3846 25.0377 64.6835 25.0461C64.8724 25.0513 64.878 24.996 64.7232 24.6609C64.6236 24.4457 64.4269 24.1354 64.2858 23.9714L64.0293 23.6733L64.5357 23.225C65.0309 22.7866 65.3822 22.2326 65.318 21.9916C65.2677 21.8031 64.1092 22.1873 63.5803 22.5678C63.0808 22.9271 62.7091 22.9616 62.3889 22.6782C62.2451 22.5509 62.31 22.4368 63.0105 21.5828C63.9138 20.4818 64.8065 19.2636 65.774 17.8119C66.5859 16.5936 66.9333 15.7805 66.4648 16.1952ZM66.3044 21.9048C65.716 21.812 65.5622 21.9047 65.3786 22.4639C65.2922 22.7269 65.0661 23.1212 64.8761 23.3401L64.5307 23.7381L64.8593 24.5049C65.2254 25.3592 65.2657 25.3849 66.1179 25.3054C66.8388 25.2382 67.4 24.8175 67.6342 24.1687C67.7289 23.9066 67.7651 23.5665 67.7148 23.4129C67.6317 23.1597 67.5608 23.1134 66.9508 22.9124C66.5809 22.7907 66.2784 22.6567 66.2783 22.6148C66.2783 22.5727 66.4386 22.5019 66.6343 22.4573C67.2182 22.3244 67.0366 22.0204 66.3044 21.9048ZM44.7377 18.4812C43.7997 17.9056 43.0691 17.6377 42.0504 17.4957C41.2384 17.3826 40.4133 17.5111 39.5304 17.8883L38.8125 18.195L38.3614 17.7957C37.7361 17.2422 36.4118 16.655 35.4038 16.4846C34.0034 16.2476 32.3902 16.6636 31.4434 17.5058C30.6368 18.2234 30.1009 19.3917 30.2198 20.1737C30.3558 21.0674 30.63 21.4858 31.7642 22.5291C32.4718 23.1801 32.9071 23.6519 33.087 23.9625C33.4564 24.6006 33.8258 24.9191 34.0087 24.7572C34.1886 24.598 34.1728 23.2538 33.9876 22.9552C33.7616 22.5909 33.7804 22.4111 34.0599 22.263C34.1994 22.1891 34.3731 22.141 34.4456 22.1562C34.6699 22.203 34.8065 22.5114 34.7174 22.7691C34.5617 23.2189 34.5795 25.2322 34.7404 25.3747C34.826 25.4504 34.9162 25.4945 34.9409 25.4726C34.9657 25.4507 35.1226 24.9179 35.2896 24.2886C35.4836 23.5579 35.5559 23.013 35.4899 22.7808C35.3702 22.3611 35.5858 22.0959 36.0306 22.1155C36.4074 22.1322 36.532 22.4551 36.2878 22.7828C36.0772 23.0654 35.4029 25.3979 35.4482 25.6866C35.5117 26.0911 35.7525 25.8748 36.1815 25.0282C36.4218 24.5539 36.7608 23.9371 36.935 23.6575C37.1465 23.3177 37.2288 23.0527 37.1831 22.8586C37.102 22.5141 37.2953 22.3081 37.6833 22.3252C37.9037 22.335 37.9913 22.3922 38.0931 22.5927C38.1981 22.7997 38.1715 22.893 37.9525 23.0869C37.7159 23.2963 36.636 25.0072 36.3393 25.6425C36.1966 25.9479 36.4268 25.9797 36.736 25.6974C37.2415 25.2355 38.5513 23.5981 38.5719 23.4023C38.5836 23.291 38.7047 23.1214 38.841 23.0256C39.0488 22.8795 39.1341 22.8845 39.3701 23.0565C39.5987 23.2233 39.6315 23.3088 39.5453 23.513C39.476 23.6768 39.3394 23.8084 39.1524 23.8911C38.8835 24.0101 37.5515 25.4128 37.301 25.8409C37.1876 26.0345 37.2681 26.1492 37.4853 26.1038C37.7741 26.0434 39.7316 24.5677 39.8291 24.3368C39.9559 24.0368 40.3837 23.9275 40.6184 24.1353C40.9699 24.4464 40.7738 24.838 40.2149 24.941C40.0541 24.9707 39.5654 25.2449 39.1289 25.5504C37.2838 26.8419 37.3167 26.8149 37.4492 26.9322C37.5821 27.0498 37.8764 26.9448 39.498 26.2021C40.1131 25.9203 40.5618 25.6572 40.6502 25.5265C40.7882 25.3226 41.2203 25.2284 41.378 25.3679C41.4706 25.4499 41.5404 26.0733 41.4645 26.1406C41.4286 26.1723 41.2007 26.2097 40.9579 26.2238C40.4766 26.2516 37.758 27.3965 37.6464 27.6184C37.5296 27.8504 37.6916 27.8617 38.3843 27.6694C38.758 27.5656 39.4514 27.4074 39.9251 27.3179C40.3987 27.2284 40.8594 27.0937 40.9487 27.0187C41.1584 26.8427 41.5653 26.7943 41.7157 26.9273C41.8798 27.0726 41.8378 27.4908 41.6417 27.6644C41.541 27.7535 41.3194 27.7742 41.0671 27.7178C40.8106 27.6605 40.2098 27.7191 39.4668 27.8739C38.2478 28.1278 37.9772 28.2399 38.1709 28.4114C38.313 28.5371 40.508 28.5088 41.0666 28.374C41.5465 28.2581 41.7608 28.3803 41.7395 28.7577C41.7168 29.1633 41.368 29.3229 40.9895 29.1011C40.6557 28.9054 39.0661 28.8238 38.8754 28.9926C38.7017 29.1464 39.0462 29.5056 39.5821 29.7292C39.9376 29.8775 40.5018 30.2731 41.4163 31.0152C42.8164 32.1512 43.0216 32.2575 43.9533 32.3284C44.9873 32.4072 46.2579 31.9815 47.031 31.2972C47.4598 30.9175 48.0136 30.03 48.1629 29.4831C48.5562 28.0418 47.9911 26.3199 46.77 25.2389C46.2091 24.7424 46.129 24.5325 46.4068 24.2866C46.4983 24.2056 46.6627 23.9025 46.7723 23.6131C47.3431 22.1039 46.9096 20.511 45.5742 19.2113C45.2426 18.8886 44.8662 18.56 44.7377 18.4812ZM57.3152 29.7229C56.7829 29.5072 56.2797 29.4182 56.067 29.502C55.9543 29.5465 55.906 29.7747 55.9252 30.1736C55.957 30.8342 55.8515 31.2205 55.4858 31.7826C55.2567 32.1347 55.2864 32.3494 55.6041 32.6368C55.7586 32.7766 56.0982 32.4035 56.1625 32.0229C56.2355 31.592 56.5765 31.3986 56.8447 31.636C57.1191 31.879 57.042 32.0885 56.5191 32.5203C56.1331 32.839 56.0532 32.9547 56.0866 33.1468C56.1706 33.6289 56.5009 33.6224 57.2286 33.1245C57.6667 32.8246 57.8384 32.8441 57.9229 33.2031C58.0162 33.5998 57.8492 33.7188 57.155 33.75C56.47 33.7807 56.4055 33.8208 56.4756 34.1725C56.5563 34.5784 56.7006 34.6431 57.4699 34.6189C58.1271 34.5981 58.1893 34.6162 58.2909 34.8565C58.4429 35.2166 58.0235 35.5306 57.6957 35.3021C57.0945 34.8827 56.5834 34.8598 56.5834 35.2523C56.5834 35.5145 56.6843 35.6045 57.0863 35.7015C57.4968 35.8005 58.3156 36.5254 58.5894 37.032C58.9419 37.6843 58.9948 37.7 59.3632 37.2618C60.0237 36.4763 60.2431 35.5112 59.9709 34.5882C59.862 34.219 59.6822 33.9464 59.2568 33.5063L58.6882 32.9178L58.7731 32.364C58.9286 31.3493 58.2368 30.096 57.3152 29.7229ZM54.0898 27.7798C52.941 27.1858 51.6849 27.3266 50.7425 28.1549C49.7082 29.064 49.408 30.3252 49.9674 31.4123C50.3542 32.1642 50.5831 32.3545 50.8336 32.1327C51.5183 31.5266 53.3228 31.2626 54.1628 31.6455C54.3889 31.7486 54.6339 31.8353 54.7071 31.838C54.9479 31.8469 55.3711 30.861 55.4114 30.1972C55.4329 29.84 55.3812 29.3579 55.2961 29.1259C55.1248 28.6583 54.5513 28.0184 54.0898 27.7798ZM54.0561 32.1514C52.7995 31.7591 51.4381 32.0734 50.7465 32.9154C50.3806 33.361 50.0895 34.0368 50.1237 34.3616C50.157 34.679 49.9942 34.7486 48.9052 34.8824L47.8845 35.0077L47.0334 34.3408C46.5653 33.9741 46.1824 33.6468 46.1823 33.6136C46.1824 33.5803 46.93 33.2146 47.8436 32.8008C48.7572 32.387 49.541 32.0165 49.5852 31.9773C49.6737 31.899 49.3618 31.0913 49.2431 31.0913C49.2025 31.0913 48.7591 31.2917 48.2578 31.5365C45.275 32.9937 45.0221 33.0871 44.0209 33.0996C43.5061 33.1061 42.4812 33.2138 41.7434 33.3392C40.5987 33.5336 40.3315 33.6178 39.9213 33.9129C39.274 34.3788 38.4642 34.6148 37.3871 34.6148C36.6716 34.6148 36.1743 34.4518 35.6035 34.1988C35.0995 33.9755 34.7286 33.9857 34.1704 33.9608C33.128 33.9144 32.342 33.7756 31.188 33.4342C30.2486 33.1563 29.9242 32.9947 30.0616 32.873C30.1004 32.8387 30.3577 32.7356 30.6334 32.6439C31.3621 32.4015 32.7015 31.2161 32.9198 30.6203C33.0041 30.3899 33.1032 30.1185 33.0628 30.0828C33.0224 30.047 32.5676 30.0509 32.3005 30.0828C31.8312 30.1386 31.9228 30.2275 31.5235 30.7299C31.189 31.151 31.0182 31.2843 30.5486 31.5282C29.5428 32.0506 28.3264 32.0783 27.6014 31.5953C27.0626 31.2365 25.4213 30.3721 24.8637 30.1535C24.6363 30.0643 24.4154 29.9605 24.3727 29.9228C24.2428 29.8078 24.5081 29.6481 25.1259 29.469C25.6739 29.3102 26.0962 29.0675 25.9893 28.9728C25.9638 28.9502 25.319 28.938 24.5564 28.9456C23.0004 28.9611 22.0307 28.7635 20.5675 28.1327C19.7198 27.7673 16.785 27.1775 15.5564 26.1367C14.8163 25.5097 13.3187 24.5686 13.2632 24.5932C13.2083 24.6175 12.5418 25.3492 12.1282 25.8198C11.4143 26.59 10.3364 28.0407 10.3364 28.0407C9.78465 28.8255 13.7705 29.5432 13.8255 29.5904C13.8807 29.6376 18.335 29.7527 18.8297 29.8462C21.4553 30.3431 26.1049 32.0003 28.2566 33.2063C29.0581 33.6554 30.6485 34.7778 31.2908 35.3475C33.1131 36.9636 34.3726 39.2258 34.739 41.5407C34.8304 42.1181 34.9167 42.6337 34.9308 42.6865C34.9602 42.7969 36.6291 43.3982 36.9011 43.3964C37.3036 43.3937 36.8918 42.5473 36.1813 41.9171C35.8161 41.5932 35.763 41.4856 35.736 41.0157C35.7022 40.4241 35.7664 40.3281 36.2957 40.179C36.7585 40.0487 37.2996 40.2452 37.8711 40.7511C38.4111 41.229 39.1141 41.4672 40.027 41.4814L40.657 41.4912L40.4122 41.0776C40.1751 40.6772 39.7285 40.2928 38.7228 39.6241L38.3112 39.3505L38.6495 38.8202C39.1525 38.0323 39.4915 36.2676 39.1536 36.197C38.9777 36.1602 38.2047 36.5887 37.8094 36.942C37.623 37.1087 37.3093 37.5437 37.1124 37.9086C36.691 38.6896 36.5506 38.8287 35.9569 39.0538C35.4466 39.2475 35.3717 39.2085 35.2253 38.674C35.0691 38.1039 34.558 37.272 33.8009 36.3557C33.4334 35.9108 33.0969 35.4877 33.0533 35.4154C32.9995 35.3264 33.3131 35.282 34.0277 35.2773C36.4663 35.2613 38.9377 35.019 42.0174 34.494C44.261 34.1116 44.7736 34.1471 45.8974 34.7626C46.518 35.1026 46.8398 35.3578 47.7522 36.2337C48.9007 37.3361 49.1858 37.513 49.4448 37.2837C49.5589 37.1827 49.5181 37.072 49.2542 36.7669C48.7613 36.1972 48.8158 36.0793 49.6917 35.8206C50.2695 35.65 50.4451 35.6386 50.5022 35.7679C50.5424 35.8587 50.723 36.1551 50.9037 36.4267C51.5973 37.4695 52.8337 37.8584 54.1732 37.455C54.8342 37.2559 54.9838 37.1713 55.3181 36.8073C55.5297 36.5769 55.7903 36.1879 55.8974 35.9426C56.5089 34.5426 55.5784 32.6266 54.0561 32.1514ZM56.9845 36.0996C56.5359 35.8546 56.4833 35.8711 56.3093 36.311C55.9116 37.3173 54.7064 38.0615 53.3508 38.1379L52.6499 38.1774L52.6946 38.4603C52.8527 39.4598 53.9558 40.5928 55.0538 40.8835C56.1773 41.181 57.3932 40.8766 58.025 40.1398C59.0809 38.9082 58.5823 36.9724 56.9845 36.0996ZM31.3746 23.0522C31.2004 23.0375 30.7696 23.1483 30.417 23.2983C28.7221 24.02 27.9835 25.9317 28.7793 27.5373C29.1977 28.3812 30.094 29.1491 31.0066 29.4455C31.7261 29.6792 33.1457 29.7229 33.3766 29.5184C33.5992 29.3214 33.8533 27.9498 33.805 27.2059C33.7206 25.9063 33.1476 24.6442 32.1603 23.5831C31.7688 23.1623 31.6388 23.0745 31.3746 23.0522ZM40.0225 30.5683C39.04 29.9023 37.6272 29.4653 36.2833 29.4118C35.3109 29.3731 33.93 29.5888 33.6687 29.8201C33.3986 30.0592 33.5021 31.3367 33.8461 32.0094C34.2577 32.8145 35.3496 33.6953 36.2894 33.9806C37.0434 34.2096 38.0258 34.1916 38.8323 33.9343C39.8525 33.6087 40.9835 32.4126 41.0286 31.6114C41.0419 31.3759 40.7172 31.0392 40.0225 30.5683ZM35.1502 27.1792C34.8783 27.1126 34.5818 27.1023 34.4915 27.1565C34.3979 27.2126 34.3098 27.5458 34.2866 27.9318C34.2642 28.3042 34.2623 28.4105 34.2149 28.588C34.1755 28.7356 34.1418 28.895 34.18 29.0064C34.2695 29.1216 34.3295 29.1202 34.7424 29.0492C35.0137 29.0026 35.4976 28.9597 35.8175 28.954C36.1376 28.9482 36.4335 28.9133 36.475 28.8766C36.5166 28.8397 36.4867 28.5928 36.4086 28.3278C36.2306 27.7244 35.8107 27.3411 35.1502 27.1792ZM41.315 36.0006C40.7696 35.8929 39.7037 35.8936 39.5821 36.0017C39.5511 36.0292 39.529 36.3659 39.5331 36.7496C39.5377 37.1825 39.4195 37.7694 39.222 38.2949L38.9034 39.1425L39.7054 39.8586C40.2745 40.3667 40.5556 40.6847 40.6735 40.9539C40.8353 41.3235 40.847 41.3318 41.1278 41.2799C41.2863 41.2506 41.6843 41.0872 42.0122 40.9168C43.1267 40.3377 43.8027 39.1265 43.5291 38.1989C43.2657 37.3056 42.4592 36.8757 41.3069 37.0142C40.1753 37.1502 40.184 36.8621 41.3207 36.5562C42.237 36.3095 42.2357 36.1823 41.315 36.0006Z" stroke="#665F5F" stroke-width="0.6" mask="url(#path-29-inside-1_378_218)"/>
<path d="M20.5782 75.9367C18.6585 74.9437 14.2899 72.8508 12.173 72.4231" stroke="#665F5F" stroke-width="0.3"/>
<path d="M24.2308 73.4147C22.7002 72.7272 17.7143 71.1705 10.9279 70.7427" stroke="#665F5F" stroke-width="0.3"/>
<path d="M28.3608 70.8955C24.9365 70.0299 16.4535 68.4666 9.91614 69.1387" stroke="#665F5F" stroke-width="0.3"/>
<path d="M33.6169 68.3341C30.9448 67.4429 22.1598 65.8801 8.71155 67.2855" stroke="#665F5F" stroke-width="0.3"/>
<path d="M43.9006 86.1088C49.0671 79.3635 62.3806 65.8546 73.7562 65.7988" stroke="#665F5F" stroke-width="0.3"/>
<path d="M55.4203 83.2679C57.5058 79.1742 64.0072 70.0876 73.0508 67.1289" stroke="#665F5F" stroke-width="0.3"/>
<path d="M33.3734 85.5569C39.3456 78.3464 55.9731 64.0169 74.1172 64.9659" stroke="#665F5F" stroke-width="0.3"/>
<path d="M24.8282 82.6605C31.14 75.1781 49.9215 60.9354 74.5527 63.8234" stroke="#665F5F" stroke-width="0.3"/>
<path d="M17.7985 78.2372C25.7712 70.9963 48.5856 57.7917 75.084 62.7593" stroke="#665F5F" stroke-width="0.3"/>
<path d="M38.692 66.1815C32.708 64.8921 20.8568 62.6778 7.99475 65.6531" stroke="#665F5F" stroke-width="0.3"/>
<defs>
<linearGradient id="paint0_linear_378_218" x1="9.05773" y1="67.6391" x2="32.9386" y2="69.4898" gradientUnits="userSpaceOnUse">
<stop stop-color="#D0989F"/>
<stop offset="1" stop-color="white" stop-opacity="0"/>
</linearGradient>
<linearGradient id="paint1_linear_378_218" x1="12.2419" y1="73.7862" x2="20.3163" y2="73.936" gradientUnits="userSpaceOnUse">
<stop stop-color="#D0989F"/>
<stop offset="1" stop-color="white" stop-opacity="0"/>
</linearGradient>
<linearGradient id="paint2_linear_378_218" x1="9.97327" y1="70.0416" x2="28.0257" y2="71.0248" gradientUnits="userSpaceOnUse">
<stop stop-color="#D0989F"/>
<stop offset="1" stop-color="white" stop-opacity="0"/>
</linearGradient>
<linearGradient id="paint3_linear_378_218" x1="8.30922" y1="65.1502" x2="37.876" y2="68.0025" gradientUnits="userSpaceOnUse">
<stop stop-color="#D0989F"/>
<stop offset="1" stop-color="white" stop-opacity="0"/>
</linearGradient>
<linearGradient id="paint4_linear_378_218" x1="25.3368" y1="68.75" x2="73.8824" y2="70.2081" gradientUnits="userSpaceOnUse">
<stop stop-color="#D0989F"/>
<stop offset="1" stop-color="white" stop-opacity="0"/>
</linearGradient>
<linearGradient id="paint5_linear_378_218" x1="18.5441" y1="66.7112" x2="74.2364" y2="68.7237" gradientUnits="userSpaceOnUse">
<stop stop-color="#D0989F"/>
<stop offset="1" stop-color="white" stop-opacity="0"/>
</linearGradient>
<linearGradient id="paint6_linear_378_218" x1="58.6094" y1="36.6432" x2="56.0237" y2="37.902" gradientUnits="userSpaceOnUse">
<stop stop-color="#665F5F"/>
<stop offset="1" stop-color="#D9D9D9" stop-opacity="0"/>
</linearGradient>
<linearGradient id="paint7_linear_378_218" x1="33.9517" y1="70.0211" x2="73.4959" y2="71.019" gradientUnits="userSpaceOnUse">
<stop stop-color="#D0989F"/>
<stop offset="1" stop-color="white" stop-opacity="0"/>
</linearGradient>
<linearGradient id="paint8_linear_378_218" x1="55.709" y1="71.1003" x2="72.7547" y2="71.35" gradientUnits="userSpaceOnUse">
<stop stop-color="#D0989F"/>
<stop offset="1" stop-color="white" stop-opacity="0"/>
</linearGradient>
<linearGradient id="paint9_linear_378_218" x1="10.9842" y1="71.9551" x2="23.8873" y2="72.3919" gradientUnits="userSpaceOnUse">
<stop stop-color="#D0989F"/>
<stop offset="1" stop-color="white" stop-opacity="0"/>
</linearGradient>
<linearGradient id="paint10_linear_378_218" x1="44.278" y1="70.6711" x2="73.304" y2="71.2366" gradientUnits="userSpaceOnUse">
<stop stop-color="#D0989F"/>
<stop offset="1" stop-color="white" stop-opacity="0"/>
</linearGradient>
<linearGradient id="paint11_linear_378_218" x1="10.8335" y1="32.357" x2="55.2327" y2="33.6578" gradientUnits="userSpaceOnUse">
<stop stop-color="#665F5F"/>
<stop offset="1" stop-color="#665F5F" stop-opacity="0"/>
</linearGradient>
<linearGradient id="paint12_linear_378_218" x1="43.6523" y1="42.8027" x2="38.8857" y2="44.5842" gradientUnits="userSpaceOnUse">
<stop stop-color="#FFD1D7"/>
<stop offset="0.461804" stop-color="#E6B9BF"/>
<stop offset="1" stop-color="#B46E77"/>
</linearGradient>
<linearGradient id="paint13_linear_378_218" x1="41.1356" y1="35.221" x2="35.1821" y2="39.3146" gradientUnits="userSpaceOnUse">
<stop stop-color="#FFD1D7"/>
<stop offset="0.461804" stop-color="#E6B9BF"/>
<stop offset="1" stop-color="#B46E77"/>
</linearGradient>
<linearGradient id="paint14_linear_378_218" x1="36.4598" y1="31.1639" x2="34.4428" y2="32.1927" gradientUnits="userSpaceOnUse">
<stop stop-color="#FFD1D7"/>
<stop offset="0.461804" stop-color="#E6B9BF"/>
<stop offset="1" stop-color="#B46E77"/>
</linearGradient>
<linearGradient id="paint15_linear_378_218" x1="33.9501" y1="29.2057" x2="28.3682" y2="31.1224" gradientUnits="userSpaceOnUse">
<stop stop-color="#FFD1D7"/>
<stop offset="0.461804" stop-color="#E6B9BF"/>
<stop offset="1" stop-color="#B46E77"/>
</linearGradient>
<linearGradient id="paint16_linear_378_218" x1="55.517" y1="33.0791" x2="50.1908" y2="35.7955" gradientUnits="userSpaceOnUse">
<stop stop-color="#FFD1D7"/>
<stop offset="0.461804" stop-color="#E6B9BF"/>
<stop offset="1" stop-color="#B46E77"/>
</linearGradient>
<linearGradient id="paint17_linear_378_218" x1="58.7096" y1="42.671" x2="53.2163" y2="45.4666" gradientUnits="userSpaceOnUse">
<stop stop-color="#FFD1D7"/>
<stop offset="0.461804" stop-color="#E6B9BF"/>
<stop offset="1" stop-color="#B46E77"/>
</linearGradient>
<linearGradient id="paint18_linear_378_218" x1="60.0887" y1="37.1625" x2="56.0411" y2="38.2596" gradientUnits="userSpaceOnUse">
<stop stop-color="#FFD1D7"/>
<stop offset="0.461804" stop-color="#E6B9BF"/>
<stop offset="1" stop-color="#B46E77"/>
</linearGradient>
<linearGradient id="paint19_linear_378_218" x1="41.1393" y1="25.9527" x2="36.1506" y2="30.2468" gradientUnits="userSpaceOnUse">
<stop stop-color="#665F5F"/>
<stop offset="1" stop-color="#D9D9D9" stop-opacity="0"/>
</linearGradient>
<linearGradient id="paint20_linear_378_218" x1="48.8882" y1="26.9937" x2="38.9228" y2="35.3735" gradientUnits="userSpaceOnUse">
<stop stop-color="#FFD1D7"/>
<stop offset="0.461804" stop-color="#E6B9BF"/>
<stop offset="1" stop-color="#B46E77"/>
</linearGradient>
<linearGradient id="paint21_linear_378_218" x1="50.247" y1="38.9166" x2="56.3413" y2="36.2717" gradientUnits="userSpaceOnUse">
<stop stop-color="#C9C9C9"/>
<stop offset="0.761209" stop-color="#E9BCC2"/>
</linearGradient>
<linearGradient id="paint22_linear_378_218" x1="54.2518" y1="31.3086" x2="58.0746" y2="23.9507" gradientUnits="userSpaceOnUse">
<stop stop-color="#665F5F"/>
<stop offset="1" stop-color="#665F5F" stop-opacity="0"/>
</linearGradient>
<linearGradient id="paint23_linear_378_218" x1="57.0059" y1="19.4362" x2="57.7294" y2="25.7561" gradientUnits="userSpaceOnUse">
<stop stop-color="#FFD1D7"/>
<stop offset="0.617708" stop-color="#D9ADB2"/>
<stop offset="1" stop-color="#BAB8B8"/>
</linearGradient>
<linearGradient id="paint24_linear_378_218" x1="67.7514" y1="26.2032" x2="64.655" y2="27.6219" gradientUnits="userSpaceOnUse">
<stop stop-color="#FFD1D7"/>
<stop offset="0.461804" stop-color="#E6B9BF"/>
<stop offset="1" stop-color="#B46E77"/>
</linearGradient>
</defs>
</svg>
